<svg width="36" height="36" viewBox="0 0 36 36" fill="none" xmlns="http://www.w3.org/2000/svg">
<rect width="36" height="36" rx="7" fill="url(#paint0_linear_570_2381)"/>
<ellipse opacity="0.25" cx="18.4041" cy="17.64" rx="6.62917" ry="6.66" fill="#5E81F4"/>
<path opacity="0.5" d="M12.6716 16.74C11.0052 16.7394 9.50292 15.731 8.86458 14.1846C8.22624 12.6381 8.57734 10.8576 9.75436 9.67246C11.3643 8.05587 13.9737 8.05587 15.5837 9.67246C16.3571 10.4488 16.7917 11.5022 16.7917 12.6006C16.7917 13.699 16.3571 14.7523 15.5837 15.5287C14.8133 16.3074 13.7645 16.7437 12.6716 16.74Z" fill="white"/>
<path opacity="0.5" d="M23.7808 27.9C21.8146 27.9007 20.1218 26.5056 19.738 24.5683C19.3542 22.6309 20.3863 20.691 22.203 19.9353C24.0197 19.1796 26.1147 19.8187 27.2064 21.4616C28.2981 23.1045 28.0824 25.2935 26.6911 26.6894C25.9205 27.4667 24.8728 27.9025 23.7808 27.9Z" fill="white"/>
<path d="M12.972 27.5321C11.3301 27.5336 9.84898 26.5238 9.21909 24.9733C8.5892 23.4228 8.9346 21.637 10.0943 20.4485C10.2715 20.2717 10.4642 20.1118 10.6698 19.9708L10.8685 19.8414C11.0079 19.757 11.1525 19.6804 11.3047 19.6065C11.3822 19.5722 11.4596 19.5353 11.5448 19.5036C11.7032 19.4444 11.8653 19.3959 12.03 19.3585L12.1332 19.3294C12.1509 19.3229 12.169 19.3177 12.1874 19.3136L13.1062 19.245C13.225 19.245 13.3643 19.2687 13.4908 19.2872H13.5192H13.6405H13.6792H13.7179H13.9657C15.5541 19.2721 17.0703 18.6067 18.1753 17.4398C19.2863 16.2817 19.8947 14.715 19.8632 13.093V13.0481V13.0033C19.8541 12.9527 19.8489 12.9015 19.8477 12.8502V12.7235L19.8142 12.6021C19.8142 12.5282 19.7961 12.449 19.7935 12.3725L19.8555 11.5015V11.4804V11.4646C19.8555 11.4435 19.8942 11.3274 19.8942 11.3274C19.9334 11.1484 19.9834 10.9721 20.0439 10.7995C20.0723 10.7203 20.1084 10.6412 20.1446 10.562C20.2123 10.4057 20.2899 10.2541 20.3768 10.108V10.0843C20.413 10.0236 20.4465 9.96289 20.4878 9.90482C20.6234 9.69588 20.7781 9.50058 20.9498 9.32156C22.5378 7.69489 25.1146 7.69252 26.7054 9.31628C28.2962 10.94 28.2985 13.575 26.7106 15.2017C26.5343 15.377 26.3424 15.5351 26.1376 15.6741C26.0756 15.719 26.0214 15.7507 25.9672 15.785L25.9363 15.8035C25.7866 15.8932 25.642 15.9724 25.5027 16.0383C25.4201 16.0753 25.3452 16.1122 25.2678 16.1413C25.1049 16.2018 24.9385 16.252 24.7697 16.2917C24.7339 16.2995 24.6986 16.3091 24.6638 16.3207L24.5993 16.3392L23.6986 16.4026C23.585 16.4026 23.4637 16.3814 23.3372 16.3656H23.2804H23.1643H23.0894H23.0482H22.8468C19.555 16.4148 16.9194 19.1723 16.9467 22.5387V22.5836V22.6311C16.9537 22.6774 16.958 22.7241 16.9596 22.771C16.9596 22.8211 16.9596 22.8686 16.9725 22.9161C16.9855 22.9636 16.9725 23.0058 16.988 23.0534C16.997 23.1216 17.0022 23.1903 17.0035 23.2592L16.939 24.1645C16.9342 24.1885 16.9282 24.2123 16.9209 24.2357L16.8977 24.3175C16.8608 24.4968 16.8116 24.6732 16.7506 24.8454C16.7222 24.9245 16.6835 25.0064 16.6473 25.0882C16.5817 25.2406 16.5085 25.3895 16.428 25.5342C16.3867 25.6081 16.348 25.6741 16.3041 25.7374C16.1673 25.9486 16.0109 26.1457 15.8369 26.326C15.0783 27.1048 14.047 27.5418 12.972 27.54V27.5321Z" fill="white"/>
<defs>
<linearGradient id="paint0_linear_570_2381" x1="44.8813" y1="31.5593" x2="36" y2="-4.44067" gradientUnits="userSpaceOnUse">
<stop stop-color="#5E81F4"/>
<stop offset="1" stop-color="#3765EB"/>
</linearGradient>
</defs>
</svg>
