<svg width="42" height="42" viewBox="0 0 42 42" fill="none" xmlns="http://www.w3.org/2000/svg">
<path d="M15.5 29C15.0833 29 14.7292 28.8542 14.4375 28.5625C14.1458 28.2569 14 27.9028 14 27.5V16.5C14 16.0972 14.1458 15.75 14.4375 15.4583C14.7292 15.1528 15.0833 15 15.5 15H17V13H18.5V15H23.5V13H25V15H26.5C26.9167 15 27.2708 15.1528 27.5625 15.4583C27.8542 15.75 28 16.0972 28 16.5V27.5C28 27.9028 27.8542 28.2569 27.5625 28.5625C27.2708 28.8542 26.9167 29 26.5 29H15.5ZM15.5 27.5H26.5V20H15.5V27.5ZM15.5 18.5H26.5V16.5H15.5V18.5ZM15.5 18.5V16.5V18.5ZM21 23C20.7917 23 20.6111 22.9306 20.4583 22.7917C20.3194 22.6389 20.25 22.4583 20.25 22.25C20.25 22.0417 20.3194 21.8681 20.4583 21.7292C20.6111 21.5764 20.7917 21.5 21 21.5C21.2083 21.5 21.3819 21.5764 21.5208 21.7292C21.6736 21.8681 21.75 22.0417 21.75 22.25C21.75 22.4583 21.6736 22.6389 21.5208 22.7917C21.3819 22.9306 21.2083 23 21 23ZM17.75 23C17.5417 23 17.3611 22.9306 17.2083 22.7917C17.0694 22.6389 17 22.4583 17 22.25C17 22.0417 17.0694 21.8681 17.2083 21.7292C17.3611 21.5764 17.5417 21.5 17.75 21.5C17.9583 21.5 18.1319 21.5764 18.2708 21.7292C18.4236 21.8681 18.5 22.0417 18.5 22.25C18.5 22.4583 18.4236 22.6389 18.2708 22.7917C18.1319 22.9306 17.9583 23 17.75 23ZM24.25 23C24.0417 23 23.8611 22.9306 23.7083 22.7917C23.5694 22.6389 23.5 22.4583 23.5 22.25C23.5 22.0417 23.5694 21.8681 23.7083 21.7292C23.8611 21.5764 24.0417 21.5 24.25 21.5C24.4583 21.5 24.6319 21.5764 24.7708 21.7292C24.9236 21.8681 25 22.0417 25 22.25C25 22.4583 24.9236 22.6389 24.7708 22.7917C24.6319 22.9306 24.4583 23 24.25 23ZM21 26C20.7917 26 20.6111 25.9306 20.4583 25.7917C20.3194 25.6389 20.25 25.4583 20.25 25.25C20.25 25.0417 20.3194 24.8681 20.4583 24.7292C20.6111 24.5764 20.7917 24.5 21 24.5C21.2083 24.5 21.3819 24.5764 21.5208 24.7292C21.6736 24.8681 21.75 25.0417 21.75 25.25C21.75 25.4583 21.6736 25.6389 21.5208 25.7917C21.3819 25.9306 21.2083 26 21 26ZM17.75 26C17.5417 26 17.3611 25.9306 17.2083 25.7917C17.0694 25.6389 17 25.4583 17 25.25C17 25.0417 17.0694 24.8681 17.2083 24.7292C17.3611 24.5764 17.5417 24.5 17.75 24.5C17.9583 24.5 18.1319 24.5764 18.2708 24.7292C18.4236 24.8681 18.5 25.0417 18.5 25.25C18.5 25.4583 18.4236 25.6389 18.2708 25.7917C18.1319 25.9306 17.9583 26 17.75 26ZM24.25 26C24.0417 26 23.8611 25.9306 23.7083 25.7917C23.5694 25.6389 23.5 25.4583 23.5 25.25C23.5 25.0417 23.5694 24.8681 23.7083 24.7292C23.8611 24.5764 24.0417 24.5 24.25 24.5C24.4583 24.5 24.6319 24.5764 24.7708 24.7292C24.9236 24.8681 25 25.0417 25 25.25C25 25.4583 24.9236 25.6389 24.7708 25.7917C24.6319 25.9306 24.4583 26 24.25 26Z" fill="#8181A5"/>
</svg>
