<svg width="100" height="21" viewBox="0 0 100 21" fill="none" xmlns="http://www.w3.org/2000/svg">
<rect y="0.5" width="20" height="20" rx="4" fill="#F0F0F3"/>
<path d="M35.201 14.481C35.565 14.481 35.8893 14.4203 36.174 14.299C36.4633 14.1777 36.706 14.0073 36.902 13.788C37.098 13.5687 37.2473 13.3027 37.35 12.99C37.4573 12.6773 37.511 12.3273 37.511 11.94V5.878H39.394V11.94C39.394 12.542 39.296 13.0997 39.1 13.613C38.9087 14.1217 38.631 14.5627 38.267 14.936C37.9077 15.3047 37.469 15.594 36.951 15.804C36.433 16.0093 35.8497 16.112 35.201 16.112C34.5477 16.112 33.962 16.0093 33.444 15.804C32.926 15.594 32.485 15.3047 32.121 14.936C31.7617 14.5627 31.484 14.1217 31.288 13.613C31.0967 13.0997 31.001 12.542 31.001 11.94V5.878H32.884V11.933C32.884 12.3203 32.9353 12.6703 33.038 12.983C33.1453 13.2957 33.297 13.564 33.493 13.788C33.6937 14.0073 33.9363 14.1777 34.221 14.299C34.5103 14.4203 34.837 14.481 35.201 14.481ZM42.6292 9.7C42.7739 9.55533 42.9255 9.42233 43.0842 9.301C43.2475 9.175 43.4179 9.07 43.5952 8.986C43.7772 8.89733 43.9709 8.82967 44.1762 8.783C44.3815 8.73167 44.6055 8.706 44.8482 8.706C45.2402 8.706 45.5879 8.77367 45.8912 8.909C46.1945 9.03967 46.4465 9.22633 46.6472 9.469C46.8525 9.707 47.0065 9.994 47.1092 10.33C47.2165 10.6613 47.2702 11.0277 47.2702 11.429V16H45.5412V11.429C45.5412 10.9903 45.4409 10.652 45.2402 10.414C45.0395 10.1713 44.7339 10.05 44.3232 10.05C44.0245 10.05 43.7445 10.1177 43.4832 10.253C43.2219 10.3883 42.9745 10.5727 42.7412 10.806V16H41.0122V8.818H42.0692C42.2932 8.818 42.4402 8.923 42.5102 9.133L42.6292 9.7ZM54.0595 10.337C54.0082 10.4023 53.9569 10.4537 53.9055 10.491C53.8589 10.5283 53.7889 10.547 53.6955 10.547C53.6069 10.547 53.5205 10.5213 53.4365 10.47C53.3525 10.414 53.2522 10.3533 53.1355 10.288C53.0189 10.218 52.8789 10.1573 52.7155 10.106C52.5569 10.05 52.3585 10.022 52.1205 10.022C51.8172 10.022 51.5512 10.078 51.3225 10.19C51.0939 10.2973 50.9025 10.4537 50.7485 10.659C50.5992 10.8643 50.4872 11.114 50.4125 11.408C50.3379 11.6973 50.3005 12.0263 50.3005 12.395C50.3005 12.7777 50.3402 13.1183 50.4195 13.417C50.5035 13.7157 50.6225 13.9677 50.7765 14.173C50.9305 14.3737 51.1172 14.5277 51.3365 14.635C51.5559 14.7377 51.8032 14.789 52.0785 14.789C52.3539 14.789 52.5755 14.7563 52.7435 14.691C52.9162 14.621 53.0609 14.5463 53.1775 14.467C53.2942 14.383 53.3945 14.3083 53.4785 14.243C53.5672 14.173 53.6652 14.138 53.7725 14.138C53.9125 14.138 54.0175 14.1917 54.0875 14.299L54.5845 14.929C54.3932 15.153 54.1855 15.342 53.9615 15.496C53.7375 15.6453 53.5042 15.7667 53.2615 15.86C53.0235 15.9487 52.7762 16.0117 52.5195 16.049C52.2675 16.0863 52.0155 16.105 51.7635 16.105C51.3202 16.105 50.9025 16.0233 50.5105 15.86C50.1185 15.692 49.7755 15.4493 49.4815 15.132C49.1875 14.8147 48.9542 14.4273 48.7815 13.97C48.6135 13.508 48.5295 12.983 48.5295 12.395C48.5295 11.8677 48.6042 11.38 48.7535 10.932C48.9075 10.4793 49.1315 10.0897 49.4255 9.763C49.7195 9.43167 50.0835 9.17267 50.5175 8.986C50.9515 8.79933 51.4509 8.706 52.0155 8.706C52.5522 8.706 53.0212 8.79233 53.4225 8.965C53.8285 9.13767 54.1925 9.385 54.5145 9.707L54.0595 10.337ZM57.3975 9.588C57.6775 9.32667 57.9855 9.11433 58.3215 8.951C58.6575 8.78767 59.0518 8.706 59.5045 8.706C59.8965 8.706 60.2441 8.77367 60.5475 8.909C60.8508 9.03967 61.1028 9.22633 61.3035 9.469C61.5088 9.707 61.6628 9.994 61.7655 10.33C61.8728 10.6613 61.9265 11.0277 61.9265 11.429V16H60.1975V11.429C60.1975 10.9903 60.0971 10.652 59.8965 10.414C59.6958 10.1713 59.3901 10.05 58.9795 10.05C58.6808 10.05 58.4008 10.1177 58.1395 10.253C57.8781 10.3883 57.6308 10.5727 57.3975 10.806V16H55.6685V5.598H57.3975V9.588ZM68.1978 11.583C68.1978 11.359 68.1651 11.149 68.0998 10.953C68.0391 10.7523 67.9458 10.5773 67.8198 10.428C67.6938 10.2787 67.5328 10.162 67.3368 10.078C67.1455 9.98933 66.9215 9.945 66.6648 9.945C66.1655 9.945 65.7711 10.0873 65.4818 10.372C65.1971 10.6567 65.0151 11.0603 64.9358 11.583H68.1978ZM64.9008 12.626C64.9288 12.9947 64.9941 13.3143 65.0968 13.585C65.1995 13.851 65.3348 14.0727 65.5028 14.25C65.6708 14.4227 65.8691 14.5533 66.0978 14.642C66.3311 14.726 66.5878 14.768 66.8678 14.768C67.1478 14.768 67.3881 14.7353 67.5888 14.67C67.7941 14.6047 67.9715 14.5323 68.1208 14.453C68.2748 14.3737 68.4078 14.3013 68.5198 14.236C68.6365 14.1707 68.7485 14.138 68.8558 14.138C69.0005 14.138 69.1078 14.1917 69.1778 14.299L69.6748 14.929C69.4835 15.153 69.2688 15.342 69.0308 15.496C68.7928 15.6453 68.5431 15.7667 68.2818 15.86C68.0251 15.9487 67.7615 16.0117 67.4908 16.049C67.2248 16.0863 66.9658 16.105 66.7138 16.105C66.2145 16.105 65.7501 16.0233 65.3208 15.86C64.8915 15.692 64.5181 15.447 64.2008 15.125C63.8835 14.7983 63.6338 14.397 63.4518 13.921C63.2698 13.4403 63.1788 12.885 63.1788 12.255C63.1788 11.765 63.2581 11.3053 63.4168 10.876C63.5755 10.442 63.8018 10.0663 64.0958 9.749C64.3945 9.427 64.7561 9.17267 65.1808 8.986C65.6101 8.79933 66.0931 8.706 66.6298 8.706C67.0825 8.706 67.5001 8.77833 67.8828 8.923C68.2655 9.06767 68.5945 9.28 68.8698 9.56C69.1451 9.83533 69.3598 10.176 69.5138 10.582C69.6725 10.9833 69.7518 11.443 69.7518 11.961C69.7518 12.2223 69.7238 12.3997 69.6678 12.493C69.6118 12.5817 69.5045 12.626 69.3458 12.626H64.9008ZM76.1943 10.337C76.143 10.4023 76.0916 10.4537 76.0403 10.491C75.9936 10.5283 75.9236 10.547 75.8303 10.547C75.7416 10.547 75.6553 10.5213 75.5713 10.47C75.4873 10.414 75.387 10.3533 75.2703 10.288C75.1536 10.218 75.0136 10.1573 74.8503 10.106C74.6916 10.05 74.4933 10.022 74.2553 10.022C73.952 10.022 73.686 10.078 73.4573 10.19C73.2286 10.2973 73.0373 10.4537 72.8833 10.659C72.734 10.8643 72.622 11.114 72.5473 11.408C72.4726 11.6973 72.4353 12.0263 72.4353 12.395C72.4353 12.7777 72.475 13.1183 72.5543 13.417C72.6383 13.7157 72.7573 13.9677 72.9113 14.173C73.0653 14.3737 73.252 14.5277 73.4713 14.635C73.6906 14.7377 73.938 14.789 74.2133 14.789C74.4886 14.789 74.7103 14.7563 74.8783 14.691C75.051 14.621 75.1956 14.5463 75.3123 14.467C75.429 14.383 75.5293 14.3083 75.6133 14.243C75.702 14.173 75.8 14.138 75.9073 14.138C76.0473 14.138 76.1523 14.1917 76.2223 14.299L76.7193 14.929C76.528 15.153 76.3203 15.342 76.0963 15.496C75.8723 15.6453 75.639 15.7667 75.3963 15.86C75.1583 15.9487 74.911 16.0117 74.6543 16.049C74.4023 16.0863 74.1503 16.105 73.8983 16.105C73.455 16.105 73.0373 16.0233 72.6453 15.86C72.2533 15.692 71.9103 15.4493 71.6163 15.132C71.3223 14.8147 71.089 14.4273 70.9163 13.97C70.7483 13.508 70.6643 12.983 70.6643 12.395C70.6643 11.8677 70.739 11.38 70.8883 10.932C71.0423 10.4793 71.2663 10.0897 71.5603 9.763C71.8543 9.43167 72.2183 9.17267 72.6523 8.986C73.0863 8.79933 73.5856 8.706 74.1503 8.706C74.687 8.706 75.156 8.79233 75.5573 8.965C75.9633 9.13767 76.3273 9.385 76.6493 9.707L76.1943 10.337ZM79.5322 5.598V11.555H79.8542C79.9709 11.555 80.0619 11.541 80.1272 11.513C80.1972 11.4803 80.2672 11.4173 80.3372 11.324L82.1222 9.119C82.1969 9.021 82.2786 8.94633 82.3672 8.895C82.4606 8.84367 82.5796 8.818 82.7242 8.818H84.3062L82.0732 11.485C81.9146 11.695 81.7419 11.856 81.5552 11.968C81.6532 12.038 81.7396 12.1197 81.8142 12.213C81.8936 12.3063 81.9682 12.4067 82.0382 12.514L84.4322 16H82.8712C82.7359 16 82.6192 15.979 82.5212 15.937C82.4232 15.8903 82.3416 15.8087 82.2762 15.692L80.4422 12.969C80.3769 12.8617 80.3092 12.7917 80.2392 12.759C80.1692 12.7263 80.0642 12.71 79.9242 12.71H79.5322V16H77.8032V5.598H79.5322ZM89.5396 11.583C89.5396 11.359 89.5069 11.149 89.4416 10.953C89.3809 10.7523 89.2876 10.5773 89.1616 10.428C89.0356 10.2787 88.8746 10.162 88.6786 10.078C88.4873 9.98933 88.2633 9.945 88.0066 9.945C87.5073 9.945 87.1129 10.0873 86.8236 10.372C86.5389 10.6567 86.3569 11.0603 86.2776 11.583H89.5396ZM86.2426 12.626C86.2706 12.9947 86.3359 13.3143 86.4386 13.585C86.5413 13.851 86.6766 14.0727 86.8446 14.25C87.0126 14.4227 87.2109 14.5533 87.4396 14.642C87.6729 14.726 87.9296 14.768 88.2096 14.768C88.4896 14.768 88.7299 14.7353 88.9306 14.67C89.1359 14.6047 89.3133 14.5323 89.4626 14.453C89.6166 14.3737 89.7496 14.3013 89.8616 14.236C89.9783 14.1707 90.0903 14.138 90.1976 14.138C90.3423 14.138 90.4496 14.1917 90.5196 14.299L91.0166 14.929C90.8253 15.153 90.6106 15.342 90.3726 15.496C90.1346 15.6453 89.8849 15.7667 89.6236 15.86C89.3669 15.9487 89.1033 16.0117 88.8326 16.049C88.5666 16.0863 88.3076 16.105 88.0556 16.105C87.5563 16.105 87.0919 16.0233 86.6626 15.86C86.2333 15.692 85.8599 15.447 85.5426 15.125C85.2253 14.7983 84.9756 14.397 84.7936 13.921C84.6116 13.4403 84.5206 12.885 84.5206 12.255C84.5206 11.765 84.5999 11.3053 84.7586 10.876C84.9173 10.442 85.1436 10.0663 85.4376 9.749C85.7363 9.427 86.0979 9.17267 86.5226 8.986C86.9519 8.79933 87.4349 8.706 87.9716 8.706C88.4243 8.706 88.8419 8.77833 89.2246 8.923C89.6073 9.06767 89.9363 9.28 90.2116 9.56C90.4869 9.83533 90.7016 10.176 90.8556 10.582C91.0143 10.9833 91.0936 11.443 91.0936 11.961C91.0936 12.2223 91.0656 12.3997 91.0096 12.493C90.9536 12.5817 90.8463 12.626 90.6876 12.626H86.2426ZM96.8991 10.652C96.7031 10.414 96.4884 10.246 96.2551 10.148C96.0264 10.05 95.7791 10.001 95.5131 10.001C95.2518 10.001 95.0161 10.05 94.8061 10.148C94.5961 10.246 94.4164 10.3953 94.2671 10.596C94.1178 10.792 94.0034 11.044 93.9241 11.352C93.8448 11.6553 93.8051 12.0147 93.8051 12.43C93.8051 12.85 93.8378 13.207 93.9031 13.501C93.9731 13.7903 94.0711 14.0283 94.1971 14.215C94.3231 14.397 94.4771 14.53 94.6591 14.614C94.8411 14.6933 95.0441 14.733 95.2681 14.733C95.6274 14.733 95.9331 14.6583 96.1851 14.509C96.4371 14.3597 96.6751 14.1473 96.8991 13.872V10.652ZM98.6281 5.598V16H97.5711C97.3424 16 97.1978 15.895 97.1371 15.685L96.9901 14.992C96.7008 15.3233 96.3671 15.5917 95.9891 15.797C95.6158 16.0023 95.1794 16.105 94.6801 16.105C94.2881 16.105 93.9288 16.0233 93.6021 15.86C93.2754 15.6967 92.9931 15.461 92.7551 15.153C92.5218 14.8403 92.3398 14.4553 92.2091 13.998C92.0831 13.5407 92.0201 13.018 92.0201 12.43C92.0201 11.898 92.0924 11.4033 92.2371 10.946C92.3818 10.4887 92.5894 10.092 92.8601 9.756C93.1308 9.42 93.4551 9.15867 93.8331 8.972C94.2111 8.78067 94.6358 8.685 95.1071 8.685C95.5084 8.685 95.8514 8.748 96.1361 8.874C96.4208 9 96.6751 9.17033 96.8991 9.385V5.598H98.6281Z" fill="#8181A5"/>
</svg>
