<svg width="410" height="303" viewBox="0 0 410 303" fill="none" xmlns="http://www.w3.org/2000/svg">
<path fill-rule="evenodd" clip-rule="evenodd" d="M309.647 57.5278C309.324 56.9478 309.585 43.6662 314.762 43.4609C319.935 43.2592 314.519 56.955 314.519 56.955L314.222 60.1971L314.432 65.9031L313.79 75.55C313.79 75.55 313.7 79.7719 311.235 81.7531L305.072 90.9281V91.0037H305.028L304.952 91.119C304.771 91.6702 302.483 94.0008 302.483 94.0008C302.483 94.0008 295.921 98.338 293.815 99.0945C291.709 99.8509 288.939 103.727 288.939 103.727L286.162 109.249C286.162 109.249 281.206 112.891 280.724 113.853C280.39 114.512 280.416 115.679 280.463 116.349C280.485 116.652 280.514 116.85 280.514 116.85L280.724 117.027C280.695 117.126 280.678 117.229 280.673 117.333L280.724 117.376C280.678 117.569 280.656 117.768 280.659 117.967C280.666 118.439 280.702 118.975 280.735 119.372C280.76 119.707 280.782 119.937 280.782 119.937L281.746 124.336C281.903 124.806 282.024 125.288 282.109 125.777L282.312 125.715C282.381 126.101 282.442 126.515 282.5 126.958L282.308 127.045V127.135C282.997 132.664 282.635 141.976 282.635 141.976C282.635 141.976 284.143 154.721 283.418 155.304C282.693 155.888 283.294 157.869 283.294 157.869C283.836 159.001 284.163 160.222 284.259 161.471C284.256 162.449 284.506 163.412 284.984 164.267L284.744 170.031L285.346 182.556C285.346 182.556 286.793 186.057 285.828 187.393C284.864 188.73 284.926 192.051 284.926 192.051C284.567 192.3 284.222 192.512 283.885 192.7V193.06L284.114 198.888V199.216C284.114 199.216 284.139 199.375 284.161 199.638V199.782C284.159 199.796 284.159 199.811 284.161 199.825V199.951C284.159 199.983 284.159 200.016 284.161 200.048V200.207V200.679V200.88V200.938V201.028V201.147C284.161 201.154 284.162 201.157 284.162 201.16C284.164 201.165 284.166 201.17 284.161 201.208C284.158 201.231 284.153 201.253 284.148 201.276C284.14 201.311 284.132 201.347 284.132 201.385V201.432C284.128 201.456 284.121 201.481 284.114 201.506C284.103 201.546 284.092 201.586 284.092 201.626C284.087 201.648 284.079 201.671 284.07 201.694C284.056 201.734 284.041 201.776 284.041 201.817C284.042 201.82 284.042 201.823 284.042 201.826C284.043 201.83 284.042 201.835 284.041 201.839V201.857C284.012 201.889 284.012 201.925 284.012 201.957C284.011 201.974 284.011 201.991 284.012 202.008C284.008 202.02 284.002 202.032 283.997 202.044C283.985 202.071 283.972 202.099 283.972 202.127V202.156C283.94 202.256 283.9 202.357 283.86 202.458V202.491C283.854 202.504 283.846 202.517 283.838 202.53C283.823 202.555 283.809 202.578 283.809 202.602L283.784 202.653C283.779 202.664 283.771 202.676 283.764 202.687C283.75 202.708 283.737 202.729 283.737 202.75C283.728 202.769 283.719 202.787 283.708 202.804C283.703 202.814 283.696 202.824 283.689 202.834C283.675 202.853 283.66 202.873 283.66 202.894L283.628 202.948C283.622 202.957 283.615 202.966 283.608 202.975C283.593 202.995 283.577 203.015 283.577 203.035C283.564 203.053 283.552 203.072 283.541 203.092L283.483 203.175L283.447 203.229L283.385 203.312L283.345 203.366C283.324 203.394 283.301 203.421 283.276 203.445L283.236 203.499L283.157 203.582L283.12 203.625L282.997 203.744L282.957 203.784L282.867 203.863L282.805 203.914C282.78 203.936 282.753 203.956 282.725 203.975C282.704 203.994 282.681 204.01 282.656 204.025L282.577 204.083L282.504 204.133L282.421 204.184L282.341 204.234L282.254 204.281L282.17 204.324L282.08 204.371L281.989 204.411L281.895 204.45L281.797 204.49C281.765 204.504 281.733 204.516 281.699 204.526L281.598 204.562L281.493 204.594L281.322 204.645L281.181 204.681L281.065 204.702L280.949 204.728L280.829 204.746L280.706 204.767H280.583H280.456H280.325H280.191H280.057H279.491H279.321H279.187H278.987H278.871L278.542 204.728C278.542 204.728 274.434 205.336 274.296 203.723C274.278 203.64 274.278 203.532 274.278 203.463V203.254C274.276 203.232 274.276 203.209 274.278 203.186V202.93V202.89V202.613V202.581V202.512V202.422V201.939V201.756V201.273V201.244V201.133C274.304 200.329 274.343 199.591 274.369 199.177C274.391 198.946 274.391 198.816 274.391 198.816C274.391 198.816 275.79 196.72 275.565 195.934C275.34 195.149 275.384 192.483 275.384 192.483C275.384 192.483 275.533 192.141 275.721 191.655L275.736 191.619C275.761 191.557 275.787 191.491 275.812 191.424C275.724 191.316 275.642 191.203 275.565 191.086C275.565 191.086 275.989 187.707 275.264 185.027C274.839 183.289 274.798 181.48 275.145 179.724C275.145 179.724 275.018 174.357 274.72 173.6C274.423 172.844 274.304 170.628 274.423 169.814C274.543 169 273.64 167.134 273.64 167.134C273.64 167.134 273.636 164.807 273.216 164.281C272.795 163.755 272.313 160.027 272.313 160.027L269.413 149.541C269.413 149.541 268.217 143.197 267.731 141.796C267.245 140.395 266.643 140.686 266.643 140.686L264.765 148.139L263.442 160.953C262.779 162.408 263.08 165.791 263.08 165.791L263.504 170.74L262.804 179.245C262.802 179.259 262.802 179.274 262.804 179.288C262.804 179.456 262.886 179.614 263.025 179.71C264.211 182.277 264.568 185.146 264.048 187.923C263.781 188.298 263.496 188.658 263.192 189.004C263.217 189.087 263.243 189.173 263.272 189.259C263.638 190.391 264.182 191.669 264.182 191.669C264.182 191.669 264.232 194.335 264.004 195.12C263.776 195.906 265.175 198.002 265.175 198.002C265.175 198.002 265.197 198.143 265.197 198.362C265.222 198.777 265.262 199.519 265.287 200.318V200.43V200.455V200.945V201.125V201.608V201.803V202.076V202.116V202.368C265.286 202.393 265.286 202.419 265.287 202.444V202.649C265.269 202.739 265.269 202.826 265.269 202.908C265.135 204.522 261.028 203.914 261.028 203.914L260.698 203.95H260.578L260.382 203.968H260.245H260.078H259.505H259.371H259.237H259.106H258.979H258.852L258.733 203.95H258.61L258.494 203.924L258.381 203.903L258.24 203.867L258.069 203.816L257.961 203.784L257.859 203.748L257.761 203.712L257.663 203.672L257.573 203.633L257.482 203.589L257.391 203.546L257.304 203.503L257.221 203.452L257.138 203.406L257.058 203.355L256.982 203.305L256.902 203.247L256.833 203.197L256.753 203.132L256.695 203.085C256.663 203.059 256.633 203.032 256.605 203.002C256.59 202.992 256.576 202.98 256.565 202.966L256.442 202.847L256.402 202.804L256.326 202.718L256.282 202.667L256.217 202.588L256.173 202.534L256.115 202.451L256.075 202.397L256.021 202.314C256.014 202.301 256.009 202.293 256.002 202.282C255.997 202.275 255.992 202.267 255.985 202.256C255.979 202.248 255.972 202.239 255.965 202.23C255.95 202.21 255.934 202.19 255.934 202.17L255.901 202.116L255.851 202.026L255.822 201.972L255.775 201.875L255.753 201.824C255.748 201.814 255.741 201.803 255.735 201.792C255.719 201.766 255.702 201.738 255.702 201.713C255.701 201.705 255.701 201.698 255.701 201.691C255.701 201.688 255.702 201.684 255.702 201.68C255.659 201.579 255.622 201.478 255.586 201.378V201.349C255.582 201.332 255.575 201.316 255.569 201.3C255.559 201.275 255.55 201.251 255.55 201.226C255.548 201.211 255.548 201.195 255.55 201.179C255.547 201.171 255.544 201.162 255.54 201.154C255.531 201.128 255.521 201.103 255.521 201.079C255.522 201.071 255.522 201.064 255.521 201.057C255.516 201.039 255.51 201.022 255.504 201.004C255.489 200.957 255.474 200.91 255.474 200.862C255.469 200.843 255.464 200.825 255.459 200.805C255.446 200.759 255.434 200.713 255.434 200.664C255.432 200.65 255.432 200.635 255.434 200.621C255.431 200.603 255.427 200.585 255.423 200.567C255.414 200.525 255.405 200.484 255.405 200.441V200.383V200.264V200.174V200.117V199.915V199.443V199.371C255.407 199.342 255.407 199.313 255.405 199.285C255.403 199.252 255.403 199.22 255.405 199.187V199.061C255.403 199.047 255.403 199.032 255.405 199.018V198.87C255.427 198.607 255.456 198.449 255.456 198.449V198.117L255.691 192.094V191.734C255.111 191.596 254.553 191.382 254.031 191.097C253.905 189.629 253.538 188.192 252.943 186.842C251.917 184.396 253.124 174.494 253.124 174.494L252.222 168.085C252.222 168.085 252.16 164.252 251.979 163.716C251.798 163.179 251.859 159.393 251.859 159.393L251.979 155.376C250.413 150.247 251.196 142.152 251.196 142.152C251.196 142.152 250.956 129.22 251.439 128.637C251.649 128.382 251.651 127.579 251.654 126.679C251.656 126.091 251.658 125.461 251.718 124.916C251.722 124.867 251.731 124.82 251.739 124.774C251.75 124.71 251.761 124.649 251.761 124.588L251.718 124.566C251.736 124.144 251.86 123.732 252.08 123.37L252.265 123.442C252.892 122.228 252.889 118.921 252.831 117.567C252.798 116.796 253.346 115.546 253.86 114.545C254.205 113.885 254.536 113.334 254.68 113.093L254.698 113.064V112.704V112.344C254.672 111.551 254.636 110.582 254.593 109.75C254.502 108.032 255.858 105.092 255.858 105.092L258.356 99.1485C258.113 98.0138 259.498 95.0131 259.498 95.0131C259.251 94.5736 260.705 90.2401 261.064 89.8294C261.423 89.4188 262.028 86.3604 262.028 86.3604C262.775 85.3122 263.863 79.9844 263.863 79.9844C263.863 79.9844 265.099 73.2013 265.367 71.537C265.635 69.8728 268.67 66.0652 268.768 65.9463L268.728 66.0184C269.82 65.2748 270.738 64.3053 271.418 63.1762C272.65 61.1949 273.495 59.826 273.495 59.826C273.495 59.826 274.847 56.7101 276.983 54.8765C278.466 53.648 280.058 52.5557 281.739 51.6129L290.559 46.5445C290.559 46.5445 292.543 45.1216 293.927 44.7433C294.288 44.6448 295.489 43.7154 297.025 42.5264C301.385 39.1519 308.447 33.6853 306.688 39.1778C304.31 46.6057 297.06 48.6446 297.06 48.6446C297.06 48.6446 292.213 52.1136 291.52 53.2195C290.828 54.3254 284.871 58.9867 283.305 59.5991C281.739 60.2115 280.535 61.2273 280.956 62.5962C280.986 62.7315 280.986 62.8716 280.956 63.0069C281.291 62.9994 281.624 62.9644 281.953 62.9024C282.627 62.7472 283.21 62.3309 283.573 61.7461C283.693 61.504 283.831 61.2715 283.987 61.0508C284.545 60.3556 285.629 60.3736 286.524 60.5501C287.43 60.7281 288.313 61.001 289.16 61.3642C289.718 61.6324 290.293 61.8623 290.882 62.0523C291.541 62.2291 292.244 62.255 292.942 62.2807C293.993 62.3194 295.033 62.3577 295.889 62.9096C296.602 63.392 297.086 64.1427 297.23 64.9881C297.363 65.8232 297.251 66.6786 296.907 67.4521C296.841 67.611 296.767 67.7716 296.692 67.9333C296.367 68.6366 296.033 69.3615 296.28 70.0673C296.392 70.3792 296.604 70.6387 296.816 70.8986C296.947 71.0591 297.079 71.2197 297.187 71.393C297.596 72.1055 297.666 72.9617 297.379 73.7308C297.437 73.6444 297.495 73.5543 297.549 73.4643C297.507 73.6279 297.453 73.7881 297.386 73.9434C297.005 74.7568 296.409 75.4517 295.66 75.9534C295.386 76.1693 295.07 76.3275 294.732 76.4181C294.627 76.4402 294.52 76.4499 294.413 76.447C294.17 76.4615 293.928 76.3942 293.728 76.256C293.652 76.3965 293.572 76.537 293.485 76.6739C292.684 77.9396 291.542 78.9577 290.19 79.6134C290.095 79.934 290.019 80.2474 289.958 80.5499C290.085 80.6126 290.207 80.6874 290.32 80.7733L290.411 83.4534C290.411 83.4534 290.483 83.565 290.596 83.7127C290.835 84.0225 291.256 84.5124 291.524 84.4332C291.915 84.3179 294.924 84.6061 294.924 84.6061C294.924 84.6061 295.983 85.06 296.374 84.4908C296.766 83.9217 298.992 82.4808 298.992 82.4808L299.184 82.2754C299.949 81.4793 302.831 78.5759 305.13 77.6753C305.13 77.6753 306.667 76.5694 306.395 74.88C306.123 73.1905 308.472 64.1019 308.472 64.1019C308.472 64.1019 309.969 58.1078 309.647 57.5278ZM278.436 72.2503C278.437 70.9085 278.789 69.5899 279.459 68.4247L279.647 68.1221L279.096 67.9852C278.939 67.9478 278.785 67.8972 278.636 67.8339C277.74 69.3144 276.874 70.6149 276.616 71.0003C276.566 71.0724 276.54 71.1156 276.54 71.1156L276.508 71.1444C276.283 71.447 276.45 73.2121 276.45 73.2121C276.45 73.2121 277.352 73.8533 277.414 74.7827C277.465 75.5572 278.357 76.7243 278.661 77.1062C278.781 76.7155 278.986 76.3555 279.259 76.0507C278.718 74.9797 278.437 73.798 278.436 72.5997V72.4448V72.2503Z" fill="url(#paint0_linear_0_6707)"/>
<path d="M297.011 67.2729C297.026 67.1341 297.038 66.9871 297.05 66.8402C297.012 67.1651 296.978 67.499 296.95 67.8402C296.971 67.6484 296.992 67.4606 297.011 67.2729Z" fill="url(#paint1_linear_0_6707)"/>
<path d="M280.634 75.9312C280.634 75.9312 279.54 81.3036 277.523 81.9986C275.507 82.6936 279.97 88.8402 279.97 88.8402L289.221 88.3181L289.389 86.3268C289.389 86.3268 287.642 82.3407 290.567 77.4904C293.493 72.64 280.634 75.9312 280.634 75.9312Z" fill="#F6BAC2"/>
<path d="M265.972 202.75C265.837 204.325 261.741 203.73 261.741 203.73C254.947 204.622 256.069 198.323 256.069 198.323V198.001L256.305 192.127L256.372 190.489C256.372 190.489 263.854 187.255 263.664 187.934C263.593 188.189 263.75 188.801 263.967 189.463C264.341 190.563 264.876 191.809 264.876 191.809C264.876 191.809 264.921 194.406 264.696 195.17C264.472 195.935 265.867 197.98 265.867 197.98C265.867 197.98 265.867 198.107 265.89 198.334C266 199.803 266.028 201.278 265.972 202.75V202.75Z" fill="#B77983"/>
<path d="M278.266 204.729C278.266 204.729 274.169 205.327 274.034 203.75C273.972 202.275 273.995 200.799 274.105 199.326C274.105 199.114 274.124 198.973 274.124 198.973C274.124 198.973 275.519 196.929 275.295 196.166C275.07 195.402 275.115 192.803 275.115 192.803C275.115 192.803 275.261 192.474 275.452 192C275.853 191.007 276.455 189.395 276.332 188.935C276.152 188.252 283.625 191.484 283.625 191.484L283.7 193.316L283.928 198.991V199.312C283.928 199.312 285.066 205.624 278.266 204.729Z" fill="#B77983"/>
<path d="M305.732 40.1994C303.414 47.6794 296.38 49.7351 296.38 49.7351C296.38 49.7351 291.671 53.2392 291 54.3365C290.33 55.4338 284.542 60.1449 283.018 60.7631C281.495 61.3813 280.332 62.4054 280.74 63.7807C281.105 65.0573 277.118 71.3046 276.516 72.2337V72.2337L276.443 72.3507L275.186 73.6712L270.918 75.8402L267.441 74.7246L267 70.5329L268.844 67.2409V67.2409V67.2409C269.911 66.4865 270.802 65.5095 271.457 64.3769C272.657 62.3798 273.477 61.0045 273.477 61.0045C273.477 61.0045 274.792 57.8662 276.866 56.0154C278.301 54.7775 279.847 53.6755 281.484 52.7234L290.053 47.6026C290.053 47.6026 291.981 46.1652 293.333 45.7738C294.685 45.3824 308.043 32.7194 305.732 40.1994Z" fill="#F6BAC2"/>
<path opacity="0.05" d="M271.074 73.3289L277 72.2639C276.936 72.3235 276.898 72.4022 276.894 72.485V72.485L276.818 72.5939L275.511 73.8223L271.074 75.8402L267.459 74.8024L267 70.9027L268.917 67.8402V67.8402C267.102 71.243 268.872 73.659 268.872 73.659L271.074 73.3289Z" fill="black"/>
<path opacity="0.05" d="M304 91.9401C303.984 91.9769 303.971 92.0145 303.959 92.0527C303.904 92.1785 303.832 92.2968 303.745 92.4046L301.411 93.4883L297.849 93.8402L296 89.5791L297.232 84.9099L297.912 84.0373L298.101 83.8402C298.171 84.6847 298.53 89.09 298.508 90.413C298.478 91.8803 299.617 91.9964 299.617 91.9964L304 91.9401Z" fill="black"/>
<path d="M304 91.7932C303.985 91.831 303.972 91.8696 303.961 91.909C303.789 92.4589 301.613 94.7816 301.613 94.7816C301.613 94.7816 295.362 99.105 293.356 99.8467C291.351 100.588 288.71 104.46 288.71 104.46L286.073 109.97C286.073 109.97 281.344 113.588 280.887 114.557C280.569 115.216 280.594 116.366 280.64 117.046C280.64 117.347 280.683 117.546 280.683 117.546L279.289 119.018L278.177 120.19L276.612 121.84L274.064 121.478L266.122 120.201L264.6 119.333L256.147 114.514C256.147 114.514 256.147 114.214 256.126 113.754C256.126 113.551 256.126 113.32 256.104 113.063C256.079 112.282 256.043 111.308 256.004 110.48C255.918 108.769 257.209 105.838 257.209 105.838L259.585 99.9155C259.357 98.7867 260.675 95.7946 260.675 95.7946C260.447 95.3605 261.823 91.037 262.166 90.6318C262.509 90.2266 263.084 87.1767 263.084 87.1767C263.799 86.1347 264.832 80.8236 264.832 80.8236C264.832 80.8236 266.008 74.0906 266.262 72.4082C266.515 70.7259 269.407 66.956 269.5 66.8402C267.437 70.668 269.242 73.4538 269.242 73.4538L271.308 73.092L276.902 71.9885C276.644 72.1622 276.816 74.0761 276.816 74.0761C277.311 74.4574 277.639 75.0196 277.731 75.6427C277.784 76.4929 278.803 77.8134 278.992 78.0486L279.021 78.0812C279.167 77.2638 279.659 76.5522 280.368 76.1347L281.659 77.8786L282.091 79.9661C282.091 79.9661 281.973 80.2592 281.23 80.838C280.486 81.4169 281.544 82.9256 281.544 82.9256C281.902 83.537 282.005 85.7982 282.005 85.7982V85.7982C282.952 84.9589 284.439 84.9589 284.439 84.9589C285.045 84.3437 285.539 83.6262 285.901 82.8388C285.962 82.5776 286.138 82.3593 286.379 82.2464C286.619 82.1334 286.898 82.1384 287.134 82.2599C287.566 81.8803 288.037 81.5492 288.539 81.2722C289.228 80.9104 290.029 81.634 290.029 81.634L290.115 84.3076C290.115 84.3076 290.183 84.4162 290.294 84.5645C290.519 84.8829 290.923 85.3713 291.176 85.2881C291.534 85.1723 294.414 85.4618 294.414 85.4618C294.414 85.4618 295.419 85.8959 295.79 85.346C296.162 84.7961 298.292 83.3453 298.292 83.3453C298.292 83.3453 298.703 88.7324 298.703 90.2375C298.703 91.7425 299.775 91.8655 299.775 91.8655L304 91.7932Z" fill="#D39999"/>
<circle cx="280.5" cy="88.3402" r="0.5" fill="#4B4442"/>
<circle cx="276.5" cy="96.3402" r="0.5" fill="#4B4442"/>
<circle cx="269.5" cy="112.34" r="0.5" fill="#4B4442"/>
<circle cx="272.5" cy="104.34" r="0.5" fill="#4B4442"/>
<path opacity="0.05" d="M264 189.64C261.43 193.149 258.654 193.091 257 192.596L257.062 190.778C257.062 190.778 263.897 187.191 263.723 187.944C263.658 188.227 263.788 188.906 264 189.64Z" fill="black"/>
<path opacity="0.05" d="M284 193.716C279.356 196.559 276.633 193.227 276 192.283C276.389 191.201 276.975 189.444 276.855 188.943C276.68 188.2 283.942 191.721 283.942 191.721L284 193.716Z" fill="black"/>
<path d="M285.68 187.54C284.752 188.868 284.806 192.156 284.806 192.156C278.82 196.426 275.682 191.231 275.682 191.231C275.682 191.231 276.088 187.886 275.393 185.231C274.98 183.508 274.941 181.718 275.277 179.979C275.277 179.979 275.161 174.67 274.867 173.921C274.574 173.173 274.461 170.979 274.577 170.169C274.693 169.36 273.824 167.518 273.824 167.518C273.824 167.518 273.824 165.209 273.414 164.691C273.005 164.173 272.545 160.475 272.545 160.475L269.758 150.09C269.758 150.09 268.595 143.802 268.131 142.417C267.667 141.032 267.084 141.32 267.084 141.32L265.41 148.762L264.131 161.457C263.49 162.896 263.769 166.248 263.769 166.248L264.174 171.151L263.5 179.576C263.499 179.59 263.499 179.605 263.5 179.619C263.499 179.784 263.577 179.939 263.711 180.037C264.854 182.589 265.194 185.426 264.685 188.174C260.268 194.523 254.92 191.231 254.92 191.231C254.803 189.782 254.451 188.36 253.877 187.022C252.887 184.598 254.05 174.792 254.05 174.792L253.177 168.443C253.177 168.443 253.119 164.633 252.945 164.126C252.771 163.619 252.829 159.856 252.829 159.856L252.945 155.874C251.434 150.795 252.188 142.776 252.188 142.776C252.188 142.776 251.956 129.967 252.423 129.387C252.76 128.97 252.547 127.071 252.692 125.7C252.707 125.284 252.824 124.878 253.032 124.517L253.09 124.459C253.848 123.535 253.848 119.844 253.786 118.398C253.757 117.635 254.282 116.398 254.782 115.405C255.145 114.707 255.474 114.132 255.598 113.923L255.648 113.84C255.648 113.84 258.96 114.65 267.736 118.804C269.308 119.577 270.993 120.095 272.729 120.34C273.593 120.455 274.468 120.468 275.335 120.38C276.657 120.254 277.936 119.841 279.081 119.171C279.687 118.829 280.233 118.393 280.701 117.88C280.581 118.24 280.654 119.47 280.701 120.204C280.723 120.538 280.748 120.765 280.748 120.765L281.716 125.046C281.873 125.553 281.994 126.071 282.078 126.596C282.147 126.977 282.205 127.391 282.259 127.83C282.937 133.305 282.574 142.532 282.574 142.532C282.574 142.532 284.024 155.169 283.332 155.744C282.64 156.32 283.212 158.284 283.212 158.284C283.738 159.41 284.054 160.622 284.143 161.86C284.138 162.827 284.379 163.779 284.843 164.63L284.607 170.342L285.216 182.735C285.216 182.735 286.611 186.213 285.68 187.54Z" fill="#8499F0"/>
<path opacity="0.05" d="M279 166.84C279 166.84 283.03 163.839 283.909 165.19C284.788 166.54 279 166.84 279 166.84Z" fill="black"/>
<path opacity="0.05" d="M281.208 167.84C281.208 167.84 280.288 168.231 282.317 168.732C284.346 169.232 281.208 167.84 281.208 167.84Z" fill="black"/>
<path opacity="0.05" d="M255.004 160.881C254.858 160.913 258.611 162.769 262 161.232C261.986 161.232 255.85 160.69 255.004 160.881Z" fill="black"/>
<path opacity="0.05" d="M262 165.84C262 165.84 260.868 167.564 258.55 167.82C256.231 168.076 262 165.84 262 165.84Z" fill="black"/>
<path opacity="0.05" d="M276 170.84C276 170.84 280.803 178.767 279.883 180.637C278.963 182.507 276 170.84 276 170.84Z" fill="black"/>
<path opacity="0.05" d="M267.575 121.84L267 137.84C267 137.84 270.408 137.706 270.99 132.435C271.573 127.164 272 122.869 272 122.869L267.575 121.84Z" fill="black"/>
<path d="M267.574 121.84L267 137.84C267 137.84 270.402 137.706 270.984 132.431C271.566 127.156 272 122.869 272 122.869L267.574 121.84Z" fill="#8499F0"/>
<path opacity="0.05" d="M261 122.35C261 122.35 258.567 129.278 253 125.923C253.015 125.48 253.131 125.047 253.339 124.662C254.863 125.34 258.394 126.333 259.838 121.84L261 122.35Z" fill="black"/>
<path opacity="0.05" d="M261 121.347C261 121.347 258.567 128.28 253 124.922C253.015 124.479 253.132 124.046 253.339 123.66C254.863 124.343 258.394 125.333 259.838 120.84L261 121.347Z" fill="black"/>
<path d="M261 122.347C261 122.347 258.567 129.28 253 125.922C253.015 125.479 253.132 125.046 253.339 124.66C254.863 125.343 258.394 126.333 259.838 121.84L261 122.347Z" fill="#8499F0"/>
<path opacity="0.05" d="M282 128.07C276.146 131.186 274 123.84 274 123.84L275.382 123.887C275.624 128.584 280.251 127.32 281.838 126.744C281.893 127.169 281.948 127.598 282 128.07Z" fill="black"/>
<path opacity="0.05" d="M282 128.072C276.149 131.183 274 123.84 274 123.84L275.382 123.887C275.624 128.582 280.251 127.322 281.838 126.746C281.893 127.156 281.948 127.6 282 128.072Z" fill="black"/>
<path d="M282 128.072C276.149 131.183 274 123.84 274 123.84L275.382 123.887C275.624 128.586 280.251 127.322 281.838 126.746C281.893 127.156 281.948 127.6 282 128.072Z" fill="#8499F0"/>
<path opacity="0.1" d="M261 122.347C261 122.347 258.567 129.28 253 125.922C253.015 125.479 253.132 125.046 253.339 124.66C254.863 125.343 258.394 126.333 259.838 121.84L261 122.347Z" fill="white"/>
<path opacity="0.1" d="M282 128.072C276.149 131.183 274 123.84 274 123.84L275.382 123.887C275.624 128.586 280.251 127.322 281.838 126.746C281.893 127.156 281.948 127.6 282 128.072Z" fill="white"/>
<path opacity="0.05" d="M266 201.551C266 201.991 266 202.401 265.955 202.74C265.821 204.329 261.73 203.729 261.73 203.729C257.995 204.225 256.65 202.512 256.206 200.873C256.066 200.341 255.997 199.794 256 199.245C255.998 198.918 256.02 198.591 256.067 198.267V197.942C256.872 197.71 257.746 197.88 258.391 198.395C260.053 199.684 262.257 198.695 262.257 198.695C262.257 198.695 263.875 198.824 264.498 199.338C264.849 199.627 265.428 198.931 265.869 198.267C265.895 198.695 265.936 199.47 265.963 200.298C265.993 200.723 266 201.152 266 201.551Z" fill="black"/>
<path opacity="0.05" d="M260 202.444C260 202.444 259.023 203.687 257.179 201.768C257.057 201.138 256.997 200.49 257 199.84C257.941 200.77 259.687 202.444 260 202.444Z" fill="black"/>
<path opacity="0.05" d="M266 201.722C265.848 201.818 265.655 201.858 265.465 201.833C265.276 201.808 265.108 201.721 265 201.592C265.359 201.37 265.689 201.118 265.985 200.84C265.994 201.141 266 201.442 266 201.722Z" fill="black"/>
<path opacity="0.05" d="M274.001 202.55C274.001 202.993 274.001 203.403 274.042 203.739C274.176 205.332 278.266 204.728 278.266 204.728C282.002 205.228 283.346 203.514 283.791 201.871C284.011 201.019 284.058 200.134 283.929 199.265V198.94C283.123 198.712 282.251 198.881 281.602 199.393C279.94 200.682 277.74 199.693 277.74 199.693C277.74 199.693 276.122 199.825 275.499 200.339C275.148 200.629 274.569 199.932 274.132 199.268C274.105 199.697 274.061 200.472 274.035 201.3C274.005 201.718 273.997 202.146 274.001 202.55Z" fill="black"/>
<path opacity="0.05" d="M281 202.444C281 202.444 281.977 203.689 283.818 201.766C283.94 201.137 284.002 200.49 284 199.84C283.055 200.767 281.309 202.444 281 202.444Z" fill="black"/>
<path opacity="0.05" d="M275.001 202.722C275.152 202.818 275.346 202.858 275.535 202.833C275.724 202.808 275.893 202.721 276 202.592C275.64 202.37 275.309 202.118 275.013 201.84C275.004 202.138 274.998 202.439 275.001 202.722Z" fill="black"/>
<path opacity="0.05" d="M270 91.8402C270 91.8402 264.311 107.417 266.502 108.769C268.692 110.121 270 91.8402 270 91.8402Z" fill="black"/>
<path opacity="0.05" d="M274 86.8402C274 86.8402 272.438 92.3166 273.219 92.813C274 93.3095 274 86.8402 274 86.8402Z" fill="black"/>
<path opacity="0.05" d="M285 98.8402C285 98.8402 278.587 105.284 279.021 105.813C279.455 106.343 285 98.8402 285 98.8402Z" fill="black"/>
<path opacity="0.05" d="M290 85.214C287.325 86.0051 281.071 87.8546 281 87.8401L281.347 86.4603C282.336 85.6222 283.888 85.6222 283.888 85.6222C284.52 85.008 285.037 84.2916 285.414 83.5054C285.478 83.2447 285.662 83.0267 285.913 82.914C286.164 82.8012 286.455 82.8062 286.701 82.9275C287.153 82.5498 287.645 82.2193 288.168 81.9414C288.888 81.5801 289.724 82.3026 289.724 82.3026L289.813 84.9684C289.813 84.9684 289.884 85.0659 290 85.214Z" fill="black"/>
<path d="M290 84.216C287.325 85.0076 281.071 86.8582 281 86.8401L281.347 85.463C282.336 84.6245 283.888 84.6245 283.888 84.6245C284.52 84.0099 285.037 83.2931 285.414 82.5064C285.478 82.2455 285.662 82.0274 285.913 81.9146C286.164 81.8018 286.455 81.8068 286.701 81.9281C287.152 81.549 287.644 81.2181 288.168 80.9414C288.888 80.58 289.724 81.3029 289.724 81.3029L289.813 83.9739C289.813 83.9739 289.884 84.0606 290 84.216Z" fill="#D39999"/>
<path opacity="0.05" d="M281.474 83.3307C281.82 83.9145 281.917 86.0734 281.917 86.0734L280.952 86.8402L279.118 81.5621L279.035 78.8195L279 78.664L279.028 78.6951C279.168 77.9153 279.645 77.2366 280.332 76.8402L281.581 78.5017L282 80.4948C282 80.4948 281.886 80.7746 281.166 81.3273C280.446 81.8799 281.474 83.3307 281.474 83.3307Z" fill="black"/>
<path d="M281.474 83.3216C281.82 83.9051 281.92 86.0633 281.92 86.0633L280.955 86.8402L279.121 81.564L279.038 78.8223L279 78.6669L279.028 78.6979C279.169 77.9178 279.645 77.2387 280.332 76.8402L281.581 78.5046L282 80.497C282 80.497 281.886 80.7767 281.166 81.3292C280.446 81.8816 281.474 83.3216 281.474 83.3216Z" fill="#D39999"/>
<path opacity="0.05" d="M294 73.844C293.998 78.2618 290.415 81.8416 285.997 81.8402C281.58 81.8388 277.999 78.2568 278 73.8391C278.001 69.4214 281.582 65.8405 286 65.8405C288.128 65.8226 290.173 66.6602 291.678 68.1651C293.182 69.6701 294.019 71.7163 294 73.844V73.844Z" fill="black"/>
<path d="M294 72.8365C294.001 76.0728 292.053 78.9912 289.063 80.2303C286.073 81.4695 282.632 80.7853 280.343 78.4969C278.055 76.2085 277.371 72.7667 278.61 69.7771C279.849 66.7874 282.767 64.8388 286.004 64.8403C288.128 64.8285 290.169 65.6671 291.671 67.1692C293.173 68.6714 294.012 70.7121 294 72.8365Z" fill="#F6BAC2"/>
<path opacity="0.05" d="M294 73.5482C294.003 74.9594 293.6 76.3438 292.836 77.5485C292.717 77.3458 292.647 77.1111 292.529 76.9049C292.362 76.6168 291.978 76.3751 291.693 76.5493C291.574 76.6429 291.484 76.7658 291.431 76.9049C291.198 77.3778 290.784 77.8507 290.241 77.84C289.757 77.7902 289.355 77.4598 289.228 77.008C289.114 76.5636 289.094 76.1017 289.169 75.6497C289.25 74.7252 289.265 73.6584 288.551 73.0362C288.091 72.7122 287.564 72.4856 287.006 72.3712C286.463 72.2006 285.897 71.9303 285.676 71.4254C285.528 71.0698 285.565 70.6929 285.432 70.3587C285.153 69.8152 284.616 69.436 283.994 69.3417C283.287 69.903 282.392 70.1975 281.477 70.1702C280.637 70.1512 279.804 70.0244 279 69.7933C280.775 66.7303 284.476 65.2071 288.005 66.0878C291.533 66.9686 293.998 70.0309 294 73.5375V73.5482Z" fill="black"/>
<path d="M285.672 70.0171C285.804 70.3803 285.768 70.7726 285.915 71.1067C286.131 71.6225 286.696 71.8985 287.236 72.0728C287.789 72.1891 288.312 72.4193 288.77 72.7484C289.478 73.3876 289.463 74.4772 289.383 75.4216C289.308 75.8833 289.328 76.3551 289.441 76.809C289.569 77.2693 289.968 77.6061 290.447 77.6589C290.986 77.6589 291.397 77.1868 291.629 76.7037C291.681 76.5618 291.771 76.4364 291.889 76.3405C292.172 76.1553 292.554 76.4022 292.719 76.7037C292.834 77.0182 292.994 77.3153 293.192 77.5863C293.457 77.8128 293.819 77.8944 294.157 77.8042C294.489 77.7144 294.798 77.556 295.064 77.3393C295.799 76.8327 296.383 76.1387 296.752 75.3308C297.117 74.5128 297.077 73.5737 296.646 72.7883C296.37 72.3307 295.934 71.9639 295.761 71.459C295.46 70.591 296.025 69.6975 296.374 68.8476C296.708 68.0704 296.816 67.2162 296.686 66.3814C296.549 65.5417 296.077 64.7917 295.376 64.3003C293.981 63.3814 292.095 63.8862 290.48 63.4431C289.902 63.2554 289.339 63.026 288.795 62.7566C287.971 62.3944 287.11 62.1216 286.226 61.9431C285.349 61.7687 284.289 61.7469 283.735 62.4407C283.583 62.6631 283.448 62.8961 283.331 63.138C282.981 63.7186 282.409 64.135 281.745 64.293C281.272 64.4056 280.776 64.3765 280.277 64.4455C279.784 64.4795 279.334 64.7351 279.055 65.1393C278.813 65.5751 278.916 66.1054 278.975 66.5921C279.033 67.0788 279.004 67.6599 278.608 67.9614C278.42 68.103 278.163 68.172 278.05 68.3718C277.942 68.6128 278.013 68.8951 278.222 69.0582C278.429 69.2128 278.669 69.3173 278.923 69.3633C279.836 69.6454 280.782 69.8054 281.738 69.8391C282.704 69.8702 283.644 69.5275 284.358 68.8839C284.296 68.9456 283.892 68.9202 283.819 68.9166C284.531 68.9929 285.404 69.3052 285.672 70.0171Z" fill="#7E646B"/>
<g opacity="0.05">
<path d="M295.499 76.4633C295.231 76.6803 294.921 76.8403 294.587 76.9333C294.248 77.0202 293.887 76.9371 293.621 76.711C293.419 76.4398 293.258 76.1417 293.141 75.8256C292.975 75.5305 292.592 75.2827 292.308 75.4613C292.191 75.5588 292.1 75.6842 292.046 75.8256C291.817 76.3102 291.4 76.7948 290.858 76.7839C290.376 76.7334 289.975 76.3942 289.851 75.9313C289.736 75.4762 289.714 75.0029 289.788 74.5395C289.873 73.5921 289.884 72.5027 289.176 71.8614C288.715 71.5295 288.188 71.2973 287.63 71.1801C287.092 71.0052 286.523 70.7283 286.302 70.2109C286.155 69.8465 286.191 69.4603 286.059 69.1178C285.841 68.5385 285.225 68.2215 284.624 68.0757C283.916 68.6469 283.025 68.9493 282.111 68.9283C281.151 68.8915 280.2 68.7298 279.282 68.4474C279.027 68.4007 278.786 68.2973 278.577 68.145C278.534 68.1056 278.496 68.0616 278.463 68.0138C278.3 68.0827 278.158 68.1919 278.05 68.3308C277.942 68.5725 278.013 68.8558 278.223 69.0194C278.431 69.1744 278.672 69.2793 278.928 69.3255C279.845 69.6084 280.797 69.7689 281.757 69.8028C282.67 69.8268 283.56 69.5255 284.266 68.9538C284.867 69.0996 285.487 69.4129 285.704 69.9923C285.837 70.3566 285.8 70.7501 285.948 71.0853C286.169 71.6027 286.734 71.8796 287.276 72.0545C287.832 72.1712 288.358 72.4021 288.818 72.7322C289.53 73.3735 289.515 74.4666 289.434 75.4139C289.359 75.8771 289.379 76.3504 289.493 76.8058C289.621 77.2675 290.022 77.6053 290.504 77.6584C291.046 77.6584 291.459 77.1847 291.692 76.7001C291.744 76.5577 291.835 76.4319 291.954 76.3357C292.238 76.1499 292.621 76.3977 292.787 76.7001C292.903 77.0164 293.065 77.3146 293.267 77.5855C293.532 77.8127 293.894 77.8946 294.233 77.8041C294.567 77.714 294.878 77.5551 295.144 77.3377C295.884 76.8295 296.47 76.1333 296.841 75.3228C296.907 75.1669 296.96 75.006 297 74.8419C296.622 75.4819 296.11 76.0347 295.499 76.4633V76.4633Z" fill="black"/>
<path d="M296.236 69.3146C296.314 69.147 296.388 68.9794 296.458 68.8154C296.528 68.6515 296.554 68.5604 296.594 68.4292C296.458 68.7176 296.339 69.0132 296.236 69.3146Z" fill="black"/>
<path d="M278.987 67.0227C279.356 66.713 279.382 66.1592 279.323 65.6819C279.279 65.4033 279.256 65.1221 279.253 64.8402C279.174 64.9161 279.106 65.0018 279.05 65.0953C278.806 65.5325 278.909 66.0645 278.968 66.5527C278.988 66.7086 278.994 66.8658 278.987 67.0227Z" fill="black"/>
</g>
<path opacity="0.05" d="M281 120.664C280.325 120.71 279.377 120.759 278.237 120.798C277.445 120.823 276.559 120.84 275.611 120.84C274.783 120.84 273.908 120.84 273 120.801C270.129 120.729 267.267 120.443 264.441 119.945C260.668 119.24 257.179 118.024 255 115.966C255.363 115.282 255.694 114.714 255.817 114.513C255.817 114.316 255.817 114.087 255.795 113.84C259.626 115.603 271.57 120.498 280.724 117.717C280.724 118.01 280.768 118.204 280.768 118.204L280.975 118.373C280.869 118.74 280.935 119.945 281 120.664Z" fill="black"/>
<path d="M281 119.668C280.325 119.713 279.377 119.763 278.237 119.798C277.445 119.826 276.559 119.84 275.611 119.84C274.783 119.84 273.908 119.84 273 119.801C270.129 119.731 267.268 119.446 264.441 118.948C260.668 118.244 257.179 117.024 255 114.966C255.363 114.282 255.694 113.718 255.817 113.513C255.817 113.316 255.817 113.09 255.795 112.84C259.626 114.603 271.57 119.502 280.724 116.735C280.724 117.028 280.768 117.221 280.768 117.221L280.975 117.391C280.869 117.743 280.935 118.948 281 119.668Z" fill="#4B4442"/>
<path d="M100.148 278.84C99.2713 277.784 98.8695 276.412 99.0375 275.048L115.005 144.246L116.328 133.381C116.635 130.881 118.747 128.996 121.263 128.977L168.031 128.665C169.377 128.657 170.662 128.107 171.597 127.138C172.533 126.17 173.039 124.865 173.002 123.519L172.984 123.023C172.938 121.665 173.444 120.346 174.387 119.369C175.33 118.392 176.629 117.84 177.986 117.84H227.132C229.891 117.84 232.129 120.076 232.135 122.838C232.135 123.063 232.12 123.288 232.091 123.512C231.903 124.921 232.322 126.345 233.244 127.427C234.166 128.509 235.504 129.147 236.924 129.183L284.124 130.389C285.576 130.425 286.941 131.091 287.863 132.215C288.785 133.339 289.174 134.808 288.928 136.242L265.331 274.226L264.887 276.834C264.777 277.5 264.53 278.136 264.163 278.703L100.148 278.84Z" fill="#38364D"/>
<g opacity="0.5">
<path d="M188 167.272L242.071 88.8403L266 105.408L211.929 183.84L188 167.272Z" fill="url(#paint2_linear_0_6707)"/>
</g>
<path d="M242.752 90.0446L265.449 105.725L212.226 182.761L189.53 167.08L242.752 90.0446Z" fill="#F9FAFB"/>
<path d="M244.387 93.6946L260.379 104.811L249.263 120.803L233.271 109.686L244.387 93.6946Z" fill="#F7B643"/>
<path opacity="0.5" d="M231.86 112.966L247.905 124.051L236.82 140.097L220.774 129.011L231.86 112.966Z" fill="#F7B643"/>
<path opacity="0.3" d="M218.473 132.338L234.518 143.423L223.433 159.468L207.387 148.383L218.473 132.338Z" fill="#F7B643"/>
<g opacity="0.5">
<path d="M184 174.692L210.339 83.8402L238 91.9881L211.661 182.84L184 174.692Z" fill="url(#paint3_linear_0_6707)"/>
</g>
<path d="M210.685 85.2198L237.164 92.9579L210.999 182.492L184.52 174.754L210.685 85.2198Z" fill="#F9FAFB"/>
<path d="M214.161 87.8043L232.88 93.2747L227.41 111.994L208.69 106.524L214.161 87.8043Z" fill="#F97878"/>
<path opacity="0.5" d="M207.556 110.403L226.275 115.874L220.805 134.593L202.085 129.123L207.556 110.403Z" fill="#F97878"/>
<path opacity="0.3" d="M200.952 132.999L219.671 138.469L214.201 157.189L195.482 151.718L200.952 132.999Z" fill="#F97878"/>
<g opacity="0.5">
<path d="M183 180.503L190.685 85.8402L220 88.1776L212.315 182.84L183 180.503Z" fill="url(#paint4_linear_0_6707)"/>
</g>
<path d="M191.928 86.6317L219.426 88.8441L211.945 181.822L184.447 179.61L191.928 86.6317Z" fill="#F9FAFB"/>
<path d="M195.841 88.4602L215.281 90.0243L213.717 109.464L194.277 107.9L195.841 88.4602Z" fill="#73B53B"/>
<path opacity="0.5" d="M193.951 111.924L213.39 113.488L211.826 132.927L192.387 131.363L193.951 111.924Z" fill="#73B53B"/>
<path opacity="0.3" d="M192.064 135.395L211.503 136.959L209.939 156.398L190.5 154.834L192.064 135.395Z" fill="#73B53B"/>
<g opacity="0.5">
<path d="M179 90.1647L207.732 88.8403L212 183.516L183.268 184.84L179 90.1647Z" fill="url(#paint5_linear_0_6707)"/>
</g>
<path d="M179.557 90.3701L207.115 89.1139L211.363 182.296L183.804 183.552L179.557 90.3701Z" fill="white"/>
<path d="M183.665 91.6875L203.147 90.7994L204.035 110.281L184.553 111.169L183.665 91.6875Z" fill="#5E81F4"/>
<path opacity="0.5" d="M185.501 114.461L205.003 113.486L205.978 132.988L186.476 133.964L185.501 114.461Z" fill="#5E81F4"/>
<path opacity="0.3" d="M185.808 138.728L205.29 137.84L206.178 157.321L186.696 158.21L185.808 138.728Z" fill="#5E81F4"/>
<path d="M191 213.593L166.562 223.042L130.845 236.84C129.494 234.322 127.507 230.918 125.048 226.856C116.588 212.845 102.59 191.052 90.1265 171.899C76.0858 150.311 64 132.094 64 132.094L72.7484 129.576L144.212 108.84L191 213.593Z" fill="#E6ECF8"/>
<path opacity="0.1" d="M191 213.54L166.407 222.983C152.668 225.824 138.648 227.103 124.618 226.795C116.104 212.792 102.017 191.01 89.4741 171.867L72 129.551L143.914 108.84L191 213.54Z" fill="black"/>
<path d="M209 207.642C209 207.642 170.99 230.189 114.24 225.089L69 114.485L90.6813 110.748L165.634 97.8402L208.167 205.491L209 207.642Z" fill="#5E81F4"/>
<path opacity="0.1" d="M209 205.586C200.01 206.027 189.607 205.984 179.143 204.735C167.818 203.404 156.427 200.662 146.662 195.633C138.497 191.433 131.516 186.864 125.43 181.383C109.596 167.155 99.7984 146.802 91 110.759L166.29 97.8402L209 205.586Z" fill="black"/>
<path d="M237 199.621C237 199.621 208.878 205.127 180.253 201.737C168.937 200.406 157.555 197.664 147.797 192.636C139.639 188.436 132.667 183.868 126.582 178.387C107.002 160.774 96.6619 133.782 86 79.2715C86 79.2715 132.75 90.5541 178.98 65.8402C178.965 65.8583 194.548 163.086 237 199.621Z" fill="#F9FAFB"/>
<path opacity="0.1" d="M180 200.84C168.614 199.502 157.162 196.745 147.345 191.689C139.137 187.466 132.123 182.873 126 177.362C142.773 176.002 145.183 166.84 145.183 166.84C157.617 186.557 180 200.84 180 200.84Z" fill="black"/>
<path opacity="0.3" d="M110 98.9382C110 98.9382 147.834 96.8402 158.398 88.8402L160 93.891C160 93.891 135.002 104.71 110 104.84V98.9382Z" fill="#5E81F4"/>
<path opacity="0.3" d="M110 123.949C110 123.949 146.494 121.978 174.067 108.84L175 110.942C175 110.942 153.119 123.542 110 126.84L110 123.949Z" fill="#5E81F4"/>
<path opacity="0.3" d="M113 133.949C113 133.949 149.496 131.978 177.067 118.84L178 120.942C178 120.942 156.118 133.539 113 136.84L113 133.949Z" fill="#5E81F4"/>
<path opacity="0.3" d="M116 143.949C116 143.949 152.496 141.978 180.071 128.84L181 130.942C181 130.942 159.118 143.542 116 146.84L116 143.949Z" fill="#5E81F4"/>
<path opacity="0.3" d="M119 153.949C119 153.949 155.496 151.978 183.067 138.84L184 140.942C184 140.942 162.118 153.542 119 156.84L119 153.949Z" fill="#5E81F4"/>
<path opacity="0.3" d="M122 163.949C122 163.949 158.496 161.978 186.071 148.84L187 150.942C187 150.942 165.118 163.539 122 166.84V163.949Z" fill="#5E81F4"/>
<path d="M379.711 287.861C379.711 287.861 364.337 286.907 366.148 297.993C366.148 297.993 365.785 299.95 367.515 300.84C367.515 300.84 367.541 300.017 369.09 300.298C369.642 300.393 370.204 300.421 370.763 300.38C371.517 300.328 372.233 300.023 372.802 299.512C372.802 299.512 377.126 297.675 378.806 290.409C378.806 290.409 380.049 288.822 379.998 288.415L377.406 289.537C377.406 289.537 378.293 291.464 377.595 293.062C377.595 293.062 377.511 289.608 377.013 289.694C376.911 289.694 375.664 290.36 375.664 290.36C375.664 290.36 377.188 293.728 376.028 296.152C376.028 296.152 376.464 292.018 375.177 290.603L373.359 291.7C373.359 291.7 375.141 295.164 373.933 297.993C373.933 297.993 374.242 293.656 372.973 291.965L371.319 293.294C371.319 293.294 372.995 296.71 371.973 299.055C371.973 299.055 371.839 294.004 370.959 293.623C370.959 293.623 369.504 294.936 369.294 295.494C369.294 295.494 370.439 297.97 369.726 299.28C369.726 299.28 369.29 295.913 368.934 295.913C368.934 295.913 367.479 298.158 367.341 299.654C367.341 299.654 367.403 297.379 368.585 295.684C367.752 295.848 366.984 296.257 366.374 296.863C366.374 296.863 366.599 295.284 368.941 295.149C368.941 295.149 370.134 293.458 370.45 293.353C370.45 293.353 368.123 293.155 366.712 293.799C366.712 293.799 367.955 292.302 370.879 292.987L372.512 291.617C372.512 291.617 369.446 291.183 368.148 291.662C368.148 291.662 369.643 290.345 372.952 291.288L374.73 290.196C374.73 290.196 372.119 289.616 370.563 289.821C370.563 289.821 372.203 288.908 375.253 289.896L376.522 289.309C376.522 289.309 374.61 288.935 374.05 288.86C373.49 288.785 373.457 288.643 373.457 288.643C374.67 288.432 375.915 288.575 377.053 289.054C377.053 289.054 379.755 288.037 379.711 287.861Z" fill="#5E81F4"/>
<ellipse opacity="0.1" cx="370" cy="300.84" rx="11" ry="2" fill="#5E81F4"/>
<ellipse opacity="0.1" cx="294" cy="294.34" rx="37" ry="3.5" fill="#5E81F4"/>
<path d="M386.826 252.851C386.826 252.851 378.043 252.337 379.086 258.307C378.976 258.928 379.29 259.546 379.864 259.84C379.864 259.84 379.882 259.397 380.767 259.547C381.082 259.598 381.402 259.612 381.721 259.59C382.152 259.563 382.561 259.4 382.886 259.126C382.886 259.126 385.355 258.136 386.317 254.223C386.317 254.223 387.029 253.369 386.999 253.151L385.525 253.762C385.525 253.762 386.03 254.802 385.632 255.663C385.632 255.663 385.584 253.802 385.3 253.845C385.241 253.845 384.53 254.202 384.53 254.202C384.53 254.202 385.4 255.988 384.744 257.321C384.744 257.321 384.994 255.095 384.257 254.331L383.214 254.924C383.214 254.924 384.231 256.789 383.542 258.311C383.542 258.311 383.719 255.974 382.993 255.067L382.049 255.781C382.049 255.781 383.004 257.621 382.418 258.883C382.418 258.883 382.34 256.164 381.839 255.96C381.481 256.254 381.161 256.589 380.885 256.957C380.885 256.957 381.541 258.293 381.135 258.997C381.135 258.997 380.885 257.185 380.682 257.178C380.682 257.178 379.856 258.375 379.772 259.197C379.812 258.435 380.057 257.695 380.483 257.053C380.006 257.14 379.567 257.361 379.219 257.689C379.219 257.689 379.348 256.839 380.693 256.767C380.693 256.767 381.375 255.856 381.555 255.799C381.555 255.799 380.225 255.692 379.418 256.038C379.418 256.038 380.129 255.238 381.799 255.603L382.735 254.863C382.735 254.863 380.98 254.631 380.24 254.888C380.24 254.888 381.095 254.173 382.985 254.695L384.003 254.105C383.22 253.939 382.418 253.873 381.618 253.909C381.618 253.909 382.558 253.416 384.298 253.948L385.035 253.634C385.035 253.634 383.929 253.423 383.619 253.391C383.31 253.359 383.28 253.273 383.28 253.273C383.974 253.161 384.686 253.238 385.337 253.494C385.337 253.494 386.855 252.944 386.826 252.851Z" fill="#5E81F4"/>
<ellipse opacity="0.1" cx="381" cy="259.84" rx="6" ry="1" fill="#5E81F4"/>
<path d="M335.797 257.855C335.797 257.855 325.93 257.192 327.096 264.869C326.972 265.667 327.324 266.463 327.97 266.84C327.97 266.84 327.97 266.269 328.998 266.46C329.353 266.526 329.713 266.545 330.071 266.517C330.556 266.481 331.016 266.27 331.381 265.915C331.381 265.915 334.155 264.644 335.234 259.613C335.234 259.613 336.033 258.517 335.999 258.231L334.316 259.023C334.316 259.023 334.885 260.355 334.436 261.463C334.436 261.463 334.381 259.072 334.062 259.126C333.997 259.126 333.198 259.59 333.198 259.59C333.198 259.59 334.175 261.912 333.438 263.601C333.438 263.601 333.719 260.739 332.893 259.757L331.72 260.519C331.72 260.519 332.862 262.92 332.087 264.876C332.087 264.876 332.286 261.874 331.474 260.69L330.411 261.611C330.411 261.611 331.487 263.974 330.829 265.599C330.829 265.599 330.747 262.102 330.181 261.839C330.181 261.839 329.252 262.749 329.112 263.122C329.112 263.122 329.845 264.838 329.389 265.744C329.389 265.744 329.108 263.415 328.878 263.404C328.878 263.404 327.956 264.949 327.85 266.003C327.896 265.025 328.171 264.078 328.649 263.255C328.115 263.368 327.622 263.653 327.233 264.073C327.233 264.073 327.377 262.981 328.878 262.886C328.878 262.886 329.643 261.714 329.849 261.645C329.849 261.645 328.354 261.504 327.449 261.95C327.449 261.95 328.244 260.922 330.119 261.39L331.168 260.439C331.168 260.439 329.204 260.142 328.368 260.469C328.368 260.469 329.328 259.56 331.453 260.226L332.595 259.464C332.595 259.464 330.918 259.065 329.917 259.209C329.917 259.209 330.973 258.578 332.927 259.263L333.743 258.855C333.743 258.855 332.516 258.589 332.156 258.547C331.796 258.505 331.779 258.395 331.779 258.395C332.556 258.249 333.355 258.346 334.086 258.677C334.086 258.677 335.828 257.973 335.797 257.855Z" fill="#5E81F4"/>
<ellipse opacity="0.1" cx="329.5" cy="266.84" rx="7.5" ry="1" fill="#5E81F4"/>
<ellipse opacity="0.1" cx="20" cy="295.84" rx="11" ry="2" fill="#5E81F4"/>
<path d="M12 287.265C12 287.265 18.1785 287.071 20.0436 285.709C21.9087 284.346 29.5503 282.731 30.0139 284.901C30.4775 287.071 39.3033 295.778 32.3245 295.838C25.3456 295.898 16.1105 294.721 14.249 293.556C12.3875 292.391 12 287.265 12 287.265Z" fill="#A8A8A8"/>
<path opacity="0.2" d="M32.4497 295.112C25.4726 295.168 16.2398 294.073 14.3788 292.989C12.9667 292.165 12.4019 289.205 12.2064 287.84H12C12 287.84 12.391 292.609 14.2485 293.692C16.1059 294.776 25.3676 295.874 32.3266 295.839C34.3397 295.822 35.0349 295.147 34.9987 294.108C34.7163 294.717 33.9487 295.102 32.4497 295.112Z" fill="black"/>
<path d="M285.151 58.6067L304.205 5.15159e-05L409.084 34.0974L390.03 92.7041L285.151 58.6067Z" fill="url(#paint6_linear_0_6707)"/>
<path d="M286.006 58.4404L304.798 0.64076L408.227 34.267L389.436 92.0667L286.006 58.4404Z" fill="#F6F7F9"/>
<g opacity="0.2">
<circle cx="315.5" cy="32.3402" r="11.5" fill="#5E81F4"/>
</g>
<g opacity="0.2">
<path d="M343 30.757L343.961 27.8402L391 42.9234L390.039 45.8402L343 30.757Z" fill="#5E81F4"/>
</g>
<g opacity="0.2">
<path d="M341 37.867L341.964 34.8402L366 42.8134L365.036 45.8402L341 37.867Z" fill="#5E81F4"/>
</g>
<g opacity="0.2">
<path d="M338 45.8817L338.968 42.8402L378 55.7987L377.032 58.8402L338 45.8817Z" fill="#5E81F4"/>
</g>
<g opacity="0.2">
<path d="M336 52.757L336.961 49.8402L384 64.9234L383.039 67.8402L336 52.757Z" fill="#5E81F4"/>
</g>
<g opacity="0.5">
<path d="M365 77.587L366.875 71.8401L380 76.0932L378.125 81.8401L365 77.587Z" fill="#5E81F4"/>
</g>
<path d="M337.992 174.811C337.986 174.69 337.974 174.57 337.956 174.451C337.956 174.325 337.916 174.199 337.894 174.091C337.847 173.846 337.796 173.605 337.739 173.371C337.71 173.259 337.681 173.144 337.648 173.036C337.306 171.759 336.689 170.571 335.84 169.554C335.793 169.497 335.743 169.443 335.696 169.389C335.649 169.335 335.5 169.18 335.403 169.083C335.305 168.985 335.215 168.899 335.121 168.816C335.027 168.733 334.94 168.658 334.853 168.586C334.679 168.445 334.517 168.327 334.376 168.226C334.235 168.125 334.17 168.089 334.083 168.038C333.876 167.915 333.643 167.84 333.403 167.819L331.902 167.671V167.671L329.852 167.47L322.522 164.636L322.233 164.737C322.018 164.148 321.837 163.547 321.691 162.937C321.913 162.841 322.11 162.697 322.269 162.515C322.442 162.382 322.579 162.207 322.667 162.008C322.852 161.583 322.497 160.679 322.569 160.161C322.685 159.329 323.119 158.526 323.473 157.774C324.226 156.157 324.775 154.404 324.685 152.629C324.594 150.854 323.781 149.054 322.277 148.064C321.499 147.549 320.584 147.275 319.774 146.807C319.145 146.447 318.592 145.964 317.992 145.554C314.988 143.561 311.154 143.287 307.896 144.834C306.373 145.579 305.075 146.695 303.64 147.592C302.204 148.488 300.512 149.176 298.83 148.91C298.807 148.978 298.79 149.047 298.78 149.118L298.639 149.1C298.349 149.885 299.058 150.663 299.724 151.199C300.964 152.218 302.37 153.234 303.987 153.27C304.612 153.27 305.274 153.151 305.842 153.406C305.971 153.463 306.092 153.536 306.203 153.623C305.47 156.55 306.448 159.64 308.735 161.619L304.992 160.28C304.992 160.28 304.837 160.359 304.594 160.51L299.402 157.068C299.402 157.068 288.991 153.309 286.098 159.164C283.206 165.018 298.635 161.997 298.635 161.997L301.937 163.797C301.825 164.477 301.953 165.174 302.298 165.77L311.298 171.308C309.49 171.866 306.493 172.748 305.961 172.748C305.191 172.748 303.068 173.504 301.72 176.525C300.371 179.545 295.547 194.282 291.305 196.737C287.064 199.193 275.88 215.628 275.88 215.628L275.93 215.758C275.731 215.812 275.536 215.866 275.344 215.931C272.996 216.743 270.963 218.269 269.533 220.295C269.148 220.828 269.076 221.525 269.343 222.126C269.611 222.727 270.179 223.141 270.835 223.214C275.25 223.773 277.662 221.746 278.823 220.215C278.899 220.118 278.968 220.021 279.033 219.924C279.376 220.071 279.762 220.089 280.118 219.974L285.516 215.628C285.516 215.628 281.293 219.769 283.77 223.549L283.582 223.812C279.407 229.747 276.344 236.385 274.542 243.405C274.542 243.405 272.227 245.105 272.036 251.906C271.844 258.707 269.526 269.663 269.526 269.663C269.526 269.663 267.986 282.7 268.948 286.664C268.948 286.664 269.06 286.823 269.266 287.064C269.194 287.15 269.114 287.244 269.027 287.337C268.185 288.245 266.666 289.498 264.898 289.138C262.2 288.569 262.2 293.293 266.055 293.671C268.539 293.912 273.421 295.017 276.585 295.773C277.284 295.949 278.026 295.775 278.573 295.306C279.119 294.838 279.403 294.133 279.333 293.419C279.145 291.726 278.801 289.678 278.176 288.22C278.136 288.13 278.096 288.04 278.056 287.957C278.169 287.849 278.284 287.741 278.396 287.625C278.396 287.625 278.396 279.312 279.749 277.048C279.749 277.048 283.412 259.856 283.216 255.51C283.068 252.111 292.723 238.873 296.925 233.281L296.889 233.069C297.973 231.629 298.646 230.765 298.646 230.765L301.897 251.359C301.897 251.359 303.441 255.892 305.368 258.347C305.368 258.347 313.66 274.027 314.625 278.938C315.348 282.664 316.86 284.864 317.547 285.714L317.297 285.951C316.419 286.754 315.128 287.557 313.66 287.251C310.962 286.682 310.962 291.406 314.817 291.784C317.301 292.029 322.183 293.134 325.343 293.89C326.043 294.066 326.786 293.891 327.333 293.422C327.881 292.953 328.165 292.248 328.095 291.532C327.874 289.566 327.444 287.121 326.612 285.678C326.545 285.554 326.471 285.434 326.392 285.318C326.686 285.201 326.948 285.017 327.158 284.781C327.158 284.781 322.143 272.878 322.143 269.66C322.143 269.66 320.024 257.382 312.889 252.849C312.889 252.849 313.562 237.49 315.594 228.943C315.645 228.734 315.695 228.525 315.746 228.323C317.64 228.029 319.518 227.639 321.373 227.157L321.564 221.49L322.53 226.023L333.327 219.412C333.327 219.412 333.233 218.221 333.052 216.395C332.958 215.481 332.846 214.408 332.712 213.245C332.604 212.316 332.481 211.33 332.351 210.321C332.315 210.069 332.282 209.814 332.246 209.562C332.105 208.543 331.949 207.513 331.783 206.505C331.718 206.126 331.653 205.751 331.588 205.382C331.497 204.888 331.407 204.406 331.313 203.942C331.266 203.708 331.215 203.474 331.168 203.247C331.121 203.02 331.067 202.793 331.016 202.573C330.966 202.354 330.915 202.141 330.865 201.929C330.836 201.825 330.81 201.72 330.785 201.619C330.731 201.414 330.677 201.212 330.622 201.018C330.396 200.21 330.265 199.379 330.232 198.541C330.232 198.21 330.232 197.875 330.232 197.544C330.232 197.212 330.282 196.881 330.329 196.55C330.351 196.388 330.38 196.222 330.413 196.06C330.535 195.402 330.718 194.756 330.959 194.131C331.078 193.817 331.215 193.508 331.364 193.202C331.725 192.482 332.087 191.715 332.47 190.897C332.665 190.491 332.861 190.073 333.056 189.648C333.251 189.223 333.45 188.791 333.649 188.352C335.526 184.186 337.377 179.545 337.872 176.496C337.923 176.175 337.963 175.873 337.981 175.589C338.002 175.33 338.006 175.07 337.992 174.811Z" fill="url(#paint7_linear_0_6707)"/>
<path d="M306 163.555L299.515 159.077C299.515 159.077 289.218 155.18 286.357 161.22C283.497 167.26 298.752 164.142 298.752 164.142L305.237 167.84L306 163.555Z" fill="#AE6E79"/>
<path d="M236.532 198.677L269.383 147.575L348.936 198.716L316.084 249.817L236.532 198.677Z" fill="#F9FAFB"/>
<path d="M248.32 195.112L257.537 180.605L260.951 182.774L251.734 197.281L248.32 195.112Z" fill="#B7B6CC"/>
<path d="M259.231 198.051L279.474 166.19L282.604 168.179L262.361 200.04L259.231 198.051Z" fill="#B7B6CC"/>
<path d="M265.917 202.295L286.16 170.435L289.29 172.423L269.047 204.284L265.917 202.295Z" fill="#B7B6CC"/>
<path d="M272.602 206.547L292.845 174.686L295.975 176.674L275.732 208.535L272.602 206.547Z" fill="#B7B6CC"/>
<path d="M279.519 212.706L299.903 180.998L303.018 183L282.634 214.709L279.519 212.706Z" fill="#B7B6CC"/>
<path d="M285.972 215.04L306.215 183.18L309.345 185.168L289.102 217.029L285.972 215.04Z" fill="white"/>
<path d="M292.659 219.285L312.901 187.424L316.031 189.413L295.789 221.274L292.659 219.285Z" fill="white"/>
<path d="M320.73 201.186L325.971 192.936L334.222 198.178L328.98 206.428L320.73 201.186Z" fill="#B7B6CC"/>
<path d="M324.304 293.781C321.205 293.019 316.426 291.908 313.994 291.662C310.216 291.294 310.216 286.512 312.862 287.094C314.294 287.406 315.564 286.593 316.422 285.788C316.682 285.536 316.926 285.266 317.152 284.982C317.464 284.6 317.895 284.334 318.375 284.228C319.792 283.919 322.756 283.448 324.549 284.431C324.968 284.693 325.306 285.067 325.527 285.512C326.341 286.983 326.765 289.429 326.987 291.397C327.063 292.11 326.792 292.815 326.258 293.289C325.725 293.763 324.996 293.946 324.304 293.781V293.781Z" fill="#BEBED0"/>
<path d="M277.296 295.778C274.202 295.016 269.424 293.904 266.994 293.657C263.216 293.289 263.216 288.5 265.859 289.086C267.589 289.454 269.078 288.198 269.899 287.285C270.001 287.174 270.092 287.068 270.169 286.968C270.483 286.593 270.912 286.333 271.388 286.231C272.804 285.918 275.767 285.447 277.563 286.434C278.096 286.721 278.519 287.355 278.858 288.176C279.468 289.65 279.804 291.712 279.99 293.418C280.058 294.129 279.781 294.83 279.246 295.299C278.711 295.767 277.985 295.946 277.296 295.778Z" fill="#BEBED0"/>
<path opacity="0.1" d="M279 287.972C274.473 292.278 270.59 287.891 270 287.167C270.103 287.066 270.194 286.967 270.271 286.876C270.587 286.531 271.017 286.293 271.496 286.2C272.918 285.912 275.895 285.479 277.699 286.386C278.234 286.636 278.677 287.218 279 287.972Z" fill="black"/>
<path opacity="0.1" d="M325 285.684C323.073 287.166 316.587 286.8 316.587 286.8C316.373 286.547 316.177 286.276 316 285.989C316.257 285.71 316.498 285.414 316.72 285.1C317.028 284.678 317.453 284.385 317.927 284.268C319.324 283.927 322.248 283.408 324.017 284.491C324.437 284.778 324.777 285.191 325 285.684Z" fill="black"/>
<path d="M326 284.955C324.678 286.648 317.148 286.271 317.148 286.271C317.148 286.271 314.887 284.014 313.944 279.131C313.001 274.248 304.903 258.648 304.903 258.648C303.02 256.203 301.513 251.694 301.513 251.694L298.312 231.21C298.312 231.21 282.87 251.505 283.059 255.828C283.249 260.152 279.666 277.264 279.666 277.264C278.348 279.52 278.348 287.8 278.348 287.8C273.454 292.887 269.31 286.859 269.31 286.859C268.367 282.914 269.875 269.947 269.875 269.947C269.875 269.947 272.136 259.047 272.322 252.282C272.507 245.517 274.772 243.828 274.772 243.828C276.531 236.855 279.526 230.253 283.617 224.333C284.753 222.709 285.506 221.84 285.506 221.84L316.016 225.412C315.431 226.703 314.991 228.056 314.705 229.444C312.721 237.946 312.062 253.223 312.062 253.223C319.031 257.732 321.103 269.936 321.103 269.936C321.103 273.115 326 284.955 326 284.955Z" fill="#5C5C8E"/>
<g opacity="0.05">
<path d="M296.926 233.72L296.54 231.217C296.54 231.217 281.347 251.511 281.533 255.835C281.72 260.158 278.198 277.27 278.198 277.27C276.898 279.526 276.898 287.806 276.898 287.806C276.122 288.694 275.119 289.346 274 289.691C275.458 290.08 277.224 289.793 279.123 287.806C279.123 287.806 279.123 279.537 280.419 277.27C280.419 277.27 283.941 260.169 283.754 255.835C283.611 252.452 292.886 239.279 296.926 233.72Z" fill="black"/>
<path d="M321.182 269.927C321.182 269.927 319.144 257.713 312.291 253.215C312.291 253.215 312.939 237.938 314.888 229.437C315.17 228.048 315.604 226.696 316.181 225.404L286.165 221.84C286.165 221.84 286.094 221.92 285.965 222.08L313.956 225.412C313.381 226.703 312.948 228.056 312.667 229.444C310.715 237.946 310.066 253.223 310.066 253.223C316.923 257.731 318.961 269.935 318.961 269.935C318.961 273.128 323.779 284.968 323.779 284.968C323.012 285.964 320.125 286.243 317.879 286.305C319.67 286.352 324.925 286.371 326 284.968C326 284.961 321.182 273.121 321.182 269.927Z" fill="black"/>
</g>
<path d="M280 220.118C279.779 220.684 279.488 221.217 279.135 221.704C278.036 223.256 275.751 225.308 271.569 224.745C270.943 224.661 270.404 224.238 270.151 223.631C269.897 223.023 269.967 222.322 270.333 221.782C271.676 219.728 273.603 218.172 275.839 217.337C276.596 217.075 277.38 216.908 278.174 216.84L280 220.118Z" fill="#AE6E79"/>
<path d="M319 167.48L304.008 161.84C304.008 161.84 299.707 164.149 301.391 167.416L315.989 176.84L319 167.48Z" fill="#42383C"/>
<path opacity="0.1" d="M320 167.481L305.007 161.84C305.007 161.84 300.707 164.146 302.391 167.418L316.968 176.84L320 167.481Z" fill="black"/>
<path d="M319.767 158.213C319.767 158.213 319.585 167.093 323.378 170.117C327.172 173.142 312.365 174.84 312.365 174.84C312.365 174.84 314.714 165.771 312.365 161.048C310.017 156.325 319.767 158.213 319.767 158.213Z" fill="#AE6E79"/>
<path opacity="0.1" d="M316 225.317C315.422 226.575 314.988 227.892 314.705 229.244C296.724 231.947 284.191 224.585 284.191 224.585C284.122 224.479 284.058 224.373 284 224.267C285.122 222.686 285.866 221.84 285.866 221.84L316 225.317Z" fill="black"/>
<path opacity="0.1" d="M280 219.204C279.787 219.788 279.508 220.338 279.168 220.84C277.542 220.534 276.241 217.018 276 216.352C276.727 216.082 277.481 215.91 278.244 215.84L280 219.204Z" fill="black"/>
<path d="M321.047 165.84L314.346 168.281L311.554 172.039C311.554 172.039 305.795 173.917 305.04 173.917C304.284 173.917 302.247 174.669 300.944 177.672C299.641 180.675 294.988 195.336 290.892 197.773C286.797 200.21 276 216.555 276 216.555C276 216.555 277.861 221.64 280.096 220.877L285.307 216.555C285.307 216.555 281.211 220.688 283.63 224.447C283.63 224.447 298.896 233.649 319.932 228.013L320.115 222.38L321.047 226.887L331.484 220.314C331.484 220.314 330.552 208.188 328.871 202.018C328.175 199.424 328.431 196.662 329.591 194.243C332.294 188.559 336.465 179.066 335.958 175.606C335.357 171.527 333.079 169.755 332.2 169.221C332.001 169.099 331.777 169.023 331.545 169L328.137 168.658L321.047 165.84Z" fill="#42383C"/>
<path opacity="0.05" d="M310 184.84C310 184.84 306.318 201.984 302.27 204.749C298.223 207.515 287.37 216.365 287 217.84" fill="black"/>
<path d="M308 184.84C308 184.84 304.321 201.985 300.273 204.751C296.224 207.517 285.366 216.368 285 217.84" fill="#42383C"/>
<path opacity="0.1" d="M312 171.84C312 171.84 325.19 168.008 329 169.006Z" fill="black"/>
<g opacity="0.05">
<path d="M330.412 194.228C333.19 188.548 337.478 179.061 336.957 175.603C336.339 171.527 333.997 169.756 333.094 169.223C332.889 169.1 332.659 169.025 332.421 169.001L330.941 168.856C331.098 168.891 331.248 168.951 331.385 169.034C332.28 169.571 334.629 171.338 335.244 175.418C335.765 178.873 331.477 188.363 328.703 194.043C327.51 196.46 327.247 199.218 327.963 201.809C329.694 207.979 330.652 220.093 330.652 220.093L321.425 225.751L321.659 226.84L332.387 220.271C332.387 220.271 331.429 208.153 329.702 201.987C328.979 199.401 329.232 196.646 330.412 194.228V194.228Z" fill="black"/>
<path d="M327.197 168.468L328.854 168.631L321.647 165.84L321 166.069L327.197 168.468V168.468Z" fill="black"/>
</g>
<path opacity="0.05" d="M309 202.84C309 202.84 314.624 199.198 316.455 200.056C318.286 200.913 325 199.84 325 199.84" fill="black"/>
<path opacity="0.05" d="M319.349 160.723C319.137 158.92 320 159.195 320 159.195C320 159.195 309.959 157.399 312.375 161.89C312.984 163.128 313.331 164.471 313.396 165.84H313.493C316.283 165.844 317.911 162.828 319.349 160.723Z" fill="black"/>
<circle cx="313" cy="156.84" r="8" fill="#AE6E79"/>
<path opacity="0.1" d="M321.823 159.671C322.542 158.065 323.077 156.326 322.991 154.565C322.905 152.804 322.121 151.018 320.669 150.032C319.921 149.525 319.037 149.253 318.257 148.789C317.65 148.427 317.114 147.952 316.536 147.546C313.654 145.566 309.942 145.29 306.802 146.822C305.336 147.546 304.085 148.673 302.701 149.561C301.317 150.449 299.686 151.13 298.065 150.869C297.784 151.648 298.471 152.416 299.1 152.953C300.297 153.964 301.652 154.971 303.212 155.003C303.815 155.003 304.452 154.888 305.009 155.141C305.378 155.347 305.691 155.64 305.922 155.996C306.672 157.003 307.309 158.09 307.819 159.239C307.976 159.733 308.27 160.171 308.668 160.5C309.387 160.964 310.317 160.576 311.184 160.544C312.506 160.489 313.7 161.33 314.677 162.229C315.655 163.127 316.589 164.156 317.826 164.631C318.75 164.993 320.597 164.972 321.061 163.859C321.237 163.439 320.895 162.54 320.967 162.026C321.14 161.204 321.428 160.411 321.823 159.671Z" fill="black"/>
<path d="M322.822 159.673C323.541 158.068 324.08 156.328 323.99 154.57C323.9 152.813 323.124 151.019 321.672 150.036C320.92 149.525 320.036 149.254 319.26 148.79C318.652 148.427 318.117 147.956 317.538 147.547C314.655 145.566 310.943 145.29 307.803 146.822C306.337 147.547 305.086 148.67 303.702 149.558C302.318 150.446 300.686 151.131 299.065 150.866C298.784 151.649 299.467 152.418 300.1 152.95C301.297 153.961 302.652 154.969 304.212 155.005C304.816 155.005 305.452 154.886 306.01 155.143C306.38 155.346 306.694 155.64 306.923 155.998C307.673 157.003 308.309 158.09 308.817 159.238C308.975 159.733 309.271 160.171 309.669 160.5C310.388 160.963 311.319 160.576 312.185 160.543C313.508 160.492 314.702 161.333 315.676 162.232C316.65 163.131 317.588 164.156 318.828 164.631C319.752 164.994 321.6 164.972 322.063 163.859C322.243 163.439 321.902 162.54 321.974 162.025C322.145 161.205 322.43 160.413 322.822 159.673Z" fill="#42383C"/>
<path opacity="0.1" d="M264.605 277.996C263.932 278.548 263.088 278.847 262.218 278.84L101.144 278.155C100.27 277.103 99.8699 275.737 100.037 274.38L115.951 144.153L125.931 144.045C127.647 144.027 129.158 145.172 129.608 146.828L131.472 153.708C131.926 155.383 133.465 156.532 135.2 156.492L175.028 155.536C177.075 155.487 178.709 153.813 178.709 151.764V147.207C178.708 145.141 180.371 143.459 182.436 143.435L237.626 142.84C239.448 142.823 241.022 144.112 241.365 145.902L265.773 273.543L265.932 274.365C266.195 275.728 265.685 277.125 264.605 277.996V277.996Z" fill="black"/>
<path d="M180.445 145.436C178.379 145.457 176.715 147.137 176.713 149.203V153.764C176.712 155.81 175.08 157.481 173.036 157.532L133.211 158.487C131.474 158.531 129.933 157.381 129.48 155.704L127.608 148.828C127.16 147.17 125.646 146.025 123.927 146.045L70.7307 146.618C69.6276 146.629 68.5847 147.123 67.8772 147.969C67.1696 148.815 66.8685 149.929 67.0533 151.017L88.4545 276.979C88.7612 278.786 90.3237 280.112 92.1572 280.119L260.216 280.84C261.342 280.844 262.411 280.344 263.13 279.478C263.85 278.611 264.144 277.468 263.933 276.362L239.374 147.902C239.032 146.111 237.458 144.822 235.635 144.841L180.445 145.436Z" fill="#3F3D56"/>
<path d="M313.636 58.317L313.35 61.5382L313.557 67.2349L312.953 76.8441C312.953 76.8441 312.867 81.0533 310.518 83.0258L304.523 92.3454L304.487 92.3635L302.231 93.4783L298.788 93.8402L297 89.4573L298.183 84.6436L298.841 83.746L299.024 83.5434C299.739 82.7471 302.499 79.8553 304.691 78.9541C304.691 78.9541 306.153 77.8683 305.895 76.1673C305.638 74.4662 307.869 65.4253 307.869 65.4253C307.869 65.4253 309.299 59.4462 308.988 58.8635C308.677 58.2808 308.931 45.0451 313.865 44.8424C318.799 44.6398 313.636 58.317 313.636 58.317Z" fill="#F6BAC2"/>
<ellipse opacity="0.1" cx="55" cy="252.84" rx="6" ry="1" fill="#5E81F4"/>
<ellipse opacity="0.1" cx="32" cy="255.84" rx="6" ry="1" fill="#5E81F4"/>
<ellipse opacity="0.1" cx="6" cy="251.84" rx="6" ry="1" fill="#5E81F4"/>
<ellipse opacity="0.1" cx="41" cy="261.34" rx="4" ry="0.5" fill="#5E81F4"/>
<ellipse opacity="0.1" cx="18" cy="261.34" rx="4" ry="0.5" fill="#5E81F4"/>
<path d="M31.7307 254.84C31.7307 254.84 39.8748 228.2 30.4551 217.528C23.4074 209.545 15.4065 210.5 11.8235 211.487C9.94853 211.986 8.38745 213.281 7.55261 215.029C6.29857 217.725 6.52429 222.101 15.3671 227.209C30.1685 235.761 31.0893 247.49 31.0893 247.49L31.7307 254.84Z" fill="#5E81F4"/>
<path d="M13 214.84C13 214.84 37.7282 222.428 32.1921 254.84" stroke="#565987"/>
<path d="M27 217.84C27 217.84 24.3122 220.237 25.1683 223.84" stroke="#565987"/>
<path d="M16 219.84C16 219.84 18.2542 218.212 21 219.111" stroke="#565987"/>
<path d="M25 230.438C25 230.438 28.9735 228.855 30 230.84" stroke="#565987"/>
<path d="M34 233.852C34 233.852 31.0515 233.658 31 234.84" stroke="#565987"/>
<path d="M33 254.84C33 254.84 23.0566 235.431 20.3272 235.847C19.0315 236.051 18.4341 237.28 18.1615 238.506C17.8264 240.096 18.0156 241.747 18.7029 243.229C20.1143 246.347 23.9042 252.242 33 254.84Z" fill="#5E81F4"/>
<path d="M20 239.84C20 239.84 30.0564 254.209 32 254.84" stroke="#565987"/>
<path d="M20 241.84H22" stroke="#565987"/>
<path d="M22 247.818L26 247.862" stroke="#565987"/>
<path d="M24.05 242.84L23.95 244.84" stroke="#565987"/>
<path d="M28.01 248.84L27.99 250.84" stroke="#565987"/>
<path d="M32 254.84C32 254.84 41.9421 235.431 44.6722 235.847C45.972 236.051 46.5695 237.28 46.8384 238.506C47.1737 240.096 46.9844 241.747 46.2969 243.229C44.8851 246.347 41.0906 252.242 32 254.84Z" fill="#5E81F4"/>
<path d="M44 239.84C44 239.84 33.925 254.209 32 254.84" stroke="#565987"/>
<path d="M45 241.84H43" stroke="#565987"/>
<path d="M43 247.818L39 247.862" stroke="#565987"/>
<path d="M39.95 242.84L40.05 244.84" stroke="#565987"/>
<path d="M35.99 248.84L36.01 250.84" stroke="#565987"/>
<path d="M15.5814 259.835C15.315 259.594 15.1214 259.269 15.0262 258.903C14.9325 258.524 15.0964 258.125 15.4159 257.954C15.7836 257.804 16.1512 258.077 16.4454 258.361C16.7395 258.646 17.074 258.948 17.4417 258.878C17.0448 258.48 16.8661 257.881 16.9711 257.299C16.9862 257.181 17.0307 257.069 17.0998 256.978C17.2983 256.742 17.6586 256.843 17.8976 257.031C18.6329 257.617 18.8645 258.752 18.8682 259.778C18.905 259.402 18.905 259.022 18.8682 258.646C18.8484 258.261 19.0027 257.891 19.2799 257.657C19.4589 257.549 19.6607 257.496 19.8645 257.503C20.2061 257.449 20.5524 257.558 20.8167 257.804C21.0742 258.192 21.059 258.725 20.7799 259.094C20.4983 259.444 20.1651 259.738 19.7946 259.965C19.5134 260.152 19.2735 260.407 19.0924 260.71C19.0702 260.751 19.0529 260.794 19.041 260.84H16.9012C16.4223 260.573 15.9783 260.234 15.5814 259.835Z" fill="#5E81F4"/>
<path d="M52.5858 251.82C52.317 251.58 52.1218 251.255 52.0269 250.889C51.9319 250.51 52.0952 250.11 52.4155 249.938C52.7856 249.787 53.1558 250.06 53.4519 250.346C53.748 250.632 54.0811 250.942 54.4623 250.881C54.0627 250.483 53.8814 249.883 53.9849 249.301C54.0013 249.182 54.0474 249.07 54.1181 248.978C54.318 248.742 54.6807 248.844 54.9213 249.027C55.6801 249.619 55.8947 250.758 55.8984 251.787C55.9355 251.408 55.9355 251.027 55.8984 250.648C55.8649 250.267 56.0032 249.891 56.2686 249.644C56.4495 249.538 56.6524 249.486 56.8571 249.493C57.2004 249.439 57.5482 249.547 57.8157 249.791C58.0759 250.182 58.059 250.719 57.775 251.089C57.4935 251.441 57.1592 251.736 56.7868 251.963C56.5036 252.149 56.262 252.403 56.0798 252.705C56.0581 252.748 56.0407 252.793 56.028 252.84H53.9219C53.4361 252.569 52.9865 252.226 52.5858 251.82Z" fill="#5E81F4"/>
<path d="M39.5869 259.824C39.3199 259.581 39.1247 259.255 39.0263 258.889C38.9323 258.509 39.0967 258.109 39.4173 257.937C39.7861 257.786 40.1549 258.06 40.45 258.346C40.745 258.632 41.0733 258.942 41.4569 258.885C41.0592 258.485 40.8789 257.884 40.9811 257.301C40.9975 257.181 41.0434 257.07 41.1139 256.978C41.313 256.741 41.6745 256.843 41.9142 257.031C42.6703 257.619 42.8805 258.758 42.8879 259.787C42.9248 259.41 42.9248 259.029 42.8879 258.652C42.8589 258.267 43.0039 257.891 43.2752 257.648C43.4545 257.539 43.6571 257.485 43.8616 257.492C44.2043 257.439 44.5515 257.549 44.8168 257.795C45.0755 258.184 45.0587 258.72 44.7763 259.089C44.495 259.44 44.1621 259.735 43.7915 259.962C43.5094 260.15 43.2687 260.406 43.0871 260.71C43.0648 260.75 43.0474 260.794 43.0354 260.84H40.8963C40.4209 260.567 39.9806 260.225 39.5869 259.824Z" fill="#5E81F4"/>
<path d="M5.79945 243.84C5.79945 243.84 4.99949 244.802 6.16809 246.256C7.33669 247.709 8.30254 248.936 7.91177 249.84C7.91177 249.84 6.14597 247.13 4.70827 247.106C3.27056 247.082 4.21797 245.449 5.79945 243.84Z" fill="#5E81F4"/>
<path opacity="0.1" d="M5.81798 243.84C5.74813 243.933 5.69289 244.035 5.65387 244.142C4.23649 245.656 3.47931 247.069 4.84447 247.106C6.11265 247.14 7.6382 249.2 8 249.722C7.98856 249.762 7.97487 249.801 7.95897 249.84C7.95897 249.84 6.17233 247.13 4.71765 247.106C3.26298 247.082 4.21784 245.449 5.81798 243.84Z" fill="black"/>
<path d="M3.97501 245.102C3.97501 245.51 3.98601 245.84 4.00001 245.84C4.01401 245.84 4.02501 245.51 4.02501 245.102C4.02501 244.693 4.01101 244.885 3.99701 244.885C3.98301 244.885 3.97501 244.693 3.97501 245.102Z" fill="#FFD037"/>
<path d="M3.23845 245.841C3.6292 245.876 3.96666 245.897 3.99774 245.888C4.02882 245.879 3.73576 245.844 3.34502 245.808C2.95428 245.773 3.10969 245.799 3.07861 245.808C3.04752 245.818 2.84771 245.805 3.23845 245.841Z" fill="#FFD037"/>
<path d="M9.20065 243.84C9.20065 243.84 10.0042 244.802 8.83203 246.256C7.65981 247.709 6.6977 248.936 7.08844 249.84C7.08844 249.84 8.85415 247.13 10.2918 247.106C11.7294 247.082 10.782 245.449 9.20065 243.84Z" fill="#5E81F4"/>
<path opacity="0.1" d="M9.18054 243.84C9.25082 243.934 9.30722 244.035 9.34828 244.142C10.7647 245.656 11.5214 247.069 10.1571 247.106C8.8898 247.14 7.36529 249.2 7 249.722C7.01097 249.762 7.02594 249.802 7.04473 249.84C7.04473 249.84 8.83016 247.13 10.2839 247.106C11.7376 247.082 10.7796 245.449 9.18054 243.84Z" fill="black"/>
<path d="M11.025 245.102C11.025 245.51 11.014 245.84 11 245.84C10.986 245.84 10.975 245.51 10.975 245.102C10.975 244.693 10.989 244.885 11.003 244.885C11.017 244.885 11.025 244.693 11.025 245.102Z" fill="#FFD037"/>
<path d="M11.7655 245.841C11.3725 245.876 11.0285 245.897 11.0017 245.888C10.9749 245.879 11.2653 245.844 11.6583 245.808C12.0514 245.773 11.8951 245.799 11.9219 245.808C11.9487 245.818 12.1541 245.805 11.7655 245.841Z" fill="#FFD037"/>
<path d="M11 249.984C11 249.984 8.851 249.918 8.20312 249.465C7.55523 249.011 4.89642 248.467 4.73356 249.196C4.57071 249.925 1.50476 252.822 3.9299 252.84C6.35505 252.857 9.56969 252.467 10.2176 252.08C10.8655 251.693 11 249.984 11 249.984Z" fill="#A8A8A8"/>
<path opacity="0.2" d="M3.88588 252.579C6.31509 252.601 9.52689 252.19 10.1749 251.78C10.6671 251.472 10.8619 250.357 10.9292 249.84H11C11 249.84 10.8654 251.637 10.2174 252.04C9.56939 252.443 6.35759 252.861 3.92838 252.839C3.22015 252.839 2.98644 252.575 3.0006 252.194C3.09621 252.432 3.38304 252.561 3.88588 252.579Z" fill="black"/>
<circle opacity="0.1" cx="12" cy="45.8402" r="8" fill="#5E81F4"/>
<circle opacity="0.1" cx="388" cy="107.84" r="8" fill="#5E81F4"/>
<circle opacity="0.1" cx="247" cy="20.8402" r="8" fill="#5E81F4"/>
<circle opacity="0.1" cx="28" cy="88.8402" r="13" fill="#5E81F4"/>
<defs>
<linearGradient id="paint0_linear_0_6707" x1="317.016" y1="204.821" x2="317.016" y2="36.8399" gradientUnits="userSpaceOnUse">
<stop stop-color="#808080" stop-opacity="0.25"/>
<stop offset="0.54" stop-color="#808080" stop-opacity="0.12"/>
<stop offset="1" stop-color="#808080" stop-opacity="0.1"/>
</linearGradient>
<linearGradient id="paint1_linear_0_6707" x1="297.05" y1="67.8402" x2="297.05" y2="66.8402" gradientUnits="userSpaceOnUse">
<stop stop-color="#808080" stop-opacity="0.25"/>
<stop offset="0.54" stop-color="#808080" stop-opacity="0.12"/>
<stop offset="1" stop-color="#808080" stop-opacity="0.1"/>
</linearGradient>
<linearGradient id="paint2_linear_0_6707" x1="211.929" y1="183.84" x2="266.096" y2="105.438" gradientUnits="userSpaceOnUse">
<stop stop-color="#808080" stop-opacity="0.25"/>
<stop offset="0.54" stop-color="#808080" stop-opacity="0.12"/>
<stop offset="1" stop-color="#808080" stop-opacity="0.1"/>
</linearGradient>
<linearGradient id="paint3_linear_0_6707" x1="211.662" y1="182.837" x2="238.212" y2="91.9818" gradientUnits="userSpaceOnUse">
<stop stop-color="#808080" stop-opacity="0.25"/>
<stop offset="0.54" stop-color="#808080" stop-opacity="0.12"/>
<stop offset="1" stop-color="#808080" stop-opacity="0.1"/>
</linearGradient>
<linearGradient id="paint4_linear_0_6707" x1="212.378" y1="182.866" x2="219.996" y2="88.1773" gradientUnits="userSpaceOnUse">
<stop stop-color="#808080" stop-opacity="0.25"/>
<stop offset="0.54" stop-color="#808080" stop-opacity="0.12"/>
<stop offset="1" stop-color="#808080" stop-opacity="0.1"/>
</linearGradient>
<linearGradient id="paint5_linear_0_6707" x1="212.049" y1="183.528" x2="207.732" y2="88.8403" gradientUnits="userSpaceOnUse">
<stop stop-color="#808080" stop-opacity="0.25"/>
<stop offset="0.54" stop-color="#808080" stop-opacity="0.12"/>
<stop offset="1" stop-color="#808080" stop-opacity="0.1"/>
</linearGradient>
<linearGradient id="paint6_linear_0_6707" x1="390.033" y1="92.7052" x2="409.087" y2="34.0985" gradientUnits="userSpaceOnUse">
<stop stop-color="#808080" stop-opacity="0.25"/>
<stop offset="0.54" stop-color="#808080" stop-opacity="0.12"/>
<stop offset="1" stop-color="#808080" stop-opacity="0.1"/>
</linearGradient>
<linearGradient id="paint7_linear_0_6707" x1="337.981" y1="295.834" x2="337.981" y2="143.858" gradientUnits="userSpaceOnUse">
<stop stop-color="#808080" stop-opacity="0.25"/>
<stop offset="0.54" stop-color="#808080" stop-opacity="0.12"/>
<stop offset="1" stop-color="#808080" stop-opacity="0.1"/>
</linearGradient>
</defs>
</svg>
