<svg width="42" height="42" viewBox="0 0 42 42" fill="none" xmlns="http://www.w3.org/2000/svg">
<path d="M17.3333 28C16.8472 28 16.3958 27.8958 15.9792 27.6875C15.5764 27.4792 15.1806 27.1597 14.7917 26.7292C14.2222 26.1042 13.7778 25.3542 13.4583 24.4792C13.1389 23.6042 12.9792 22.7083 12.9792 21.7917C12.9792 20.7222 13.1875 19.7153 13.6042 18.7708C14.0347 17.8264 14.6111 17 15.3333 16.2917C16.0694 15.5833 16.9236 15.0278 17.8958 14.625C18.8681 14.2083 19.9028 14 21 14C22.1111 14 23.1458 14.2083 24.1042 14.625C25.0764 15.0417 25.9236 15.6111 26.6458 16.3333C27.3819 17.0556 27.9583 17.9028 28.375 18.875C28.7917 19.8333 29 20.8611 29 21.9583C29 22.9444 28.8264 23.8681 28.4792 24.7292C28.1458 25.5903 27.6667 26.3194 27.0417 26.9167C26.6667 27.2778 26.2778 27.5486 25.875 27.7292C25.4722 27.9097 25.0625 28 24.6458 28C24.4097 28 24.1667 27.9722 23.9167 27.9167C23.6667 27.8472 23.4236 27.7569 23.1875 27.6458L22 27.0625C21.8472 26.9931 21.6944 26.9444 21.5417 26.9167C21.4028 26.875 21.2431 26.8542 21.0625 26.8542C20.8542 26.8542 20.6458 26.8819 20.4375 26.9375C20.2292 26.9792 20.0278 27.0486 19.8333 27.1458L18.8125 27.6458C18.5764 27.7569 18.3333 27.8472 18.0833 27.9167C17.8333 27.9722 17.5833 28 17.3333 28ZM17.3333 26.5208C17.4722 26.5208 17.6042 26.5069 17.7292 26.4792C17.8681 26.4375 18.0069 26.3819 18.1458 26.3125L19.1458 25.7917C19.4236 25.6389 19.7222 25.5278 20.0417 25.4583C20.3611 25.3889 20.6875 25.3542 21.0208 25.3542C21.3264 25.3542 21.6111 25.3889 21.875 25.4583C22.1528 25.5139 22.4167 25.6042 22.6667 25.7292L23.8333 26.3125C23.9861 26.3819 24.1181 26.4375 24.2292 26.4792C24.3542 26.5069 24.4861 26.5208 24.625 26.5208C24.8611 26.5208 25.0903 26.4722 25.3125 26.375C25.5486 26.2639 25.7847 26.0972 26.0208 25.875C26.5069 25.4306 26.875 24.8819 27.125 24.2292C27.375 23.5625 27.5 22.8403 27.5 22.0625C27.5 20.2292 26.8681 18.6806 25.6042 17.4167C24.3542 16.1389 22.8194 15.5 21 15.5C19.1944 15.5 17.6528 16.1319 16.375 17.3958C15.1111 18.6597 14.4792 20.1875 14.4792 21.9792C14.4792 22.7569 14.6042 23.4861 14.8542 24.1667C15.1181 24.8333 15.4861 25.3958 15.9583 25.8542C16.1944 26.0903 16.4236 26.2639 16.6458 26.375C16.8681 26.4722 17.0972 26.5208 17.3333 26.5208ZM21 23.25C21.4167 23.25 21.7708 23.1042 22.0625 22.8125C22.3542 22.5208 22.5 22.1667 22.5 21.75C22.5 21.6389 22.4861 21.5278 22.4583 21.4167C22.4444 21.3056 22.4097 21.1944 22.3542 21.0833L23.4583 19.6458C23.625 19.8403 23.7639 20.0486 23.875 20.2708C23.9861 20.4931 24.0764 20.7361 24.1458 21H25.6667C25.4722 19.8333 24.9375 18.875 24.0625 18.125C23.1875 17.375 22.1667 17 21 17C19.8194 17 18.7917 17.3819 17.9167 18.1458C17.0417 18.8958 16.5139 19.8472 16.3333 21H17.8542C18.0208 20.2639 18.3958 19.6667 18.9792 19.2083C19.5764 18.7361 20.25 18.5 21 18.5C21.2222 18.5 21.4375 18.5208 21.6458 18.5625C21.8542 18.6042 22.0556 18.6667 22.25 18.75L21.1042 20.25C21.0764 20.25 21.0556 20.25 21.0417 20.25C21.0417 20.25 21.0278 20.25 21 20.25C20.5833 20.25 20.2292 20.3958 19.9375 20.6875C19.6458 20.9792 19.5 21.3333 19.5 21.75C19.5 22.1667 19.6458 22.5208 19.9375 22.8125C20.2292 23.1042 20.5833 23.25 21 23.25Z" fill="#8181A5"/>
</svg>
