<svg width="14" height="16" viewBox="0 0 14 16" fill="none" xmlns="http://www.w3.org/2000/svg">
<path d="M1.5 16C1.08333 16 0.729167 15.8542 0.4375 15.5625C0.145834 15.2569 1.19209e-07 14.9028 1.19209e-07 14.5V3.5C1.19209e-07 3.09722 0.145834 2.75 0.4375 2.45833C0.729167 2.15278 1.08333 2 1.5 2H3V-7.15256e-07H4.5V2H9.5V-7.15256e-07H11V2H12.5C12.9167 2 13.2708 2.15278 13.5625 2.45833C13.8542 2.75 14 3.09722 14 3.5V14.5C14 14.9028 13.8542 15.2569 13.5625 15.5625C13.2708 15.8542 12.9167 16 12.5 16H1.5ZM1.5 14.5H12.5V7H1.5V14.5ZM1.5 5.5H12.5V3.5H1.5V5.5ZM1.5 5.5V3.5V5.5ZM7 10C6.79167 10 6.61111 9.93055 6.45833 9.79167C6.31945 9.63889 6.25 9.45833 6.25 9.25C6.25 9.04167 6.31945 8.86806 6.45833 8.72917C6.61111 8.57639 6.79167 8.5 7 8.5C7.20833 8.5 7.38194 8.57639 7.52083 8.72917C7.67361 8.86806 7.75 9.04167 7.75 9.25C7.75 9.45833 7.67361 9.63889 7.52083 9.79167C7.38194 9.93055 7.20833 10 7 10ZM3.75 10C3.54167 10 3.36111 9.93055 3.20833 9.79167C3.06944 9.63889 3 9.45833 3 9.25C3 9.04167 3.06944 8.86806 3.20833 8.72917C3.36111 8.57639 3.54167 8.5 3.75 8.5C3.95833 8.5 4.13194 8.57639 4.27083 8.72917C4.42361 8.86806 4.5 9.04167 4.5 9.25C4.5 9.45833 4.42361 9.63889 4.27083 9.79167C4.13194 9.93055 3.95833 10 3.75 10ZM10.25 10C10.0417 10 9.86111 9.93055 9.70833 9.79167C9.56945 9.63889 9.5 9.45833 9.5 9.25C9.5 9.04167 9.56945 8.86806 9.70833 8.72917C9.86111 8.57639 10.0417 8.5 10.25 8.5C10.4583 8.5 10.6319 8.57639 10.7708 8.72917C10.9236 8.86806 11 9.04167 11 9.25C11 9.45833 10.9236 9.63889 10.7708 9.79167C10.6319 9.93055 10.4583 10 10.25 10ZM7 13C6.79167 13 6.61111 12.9306 6.45833 12.7917C6.31945 12.6389 6.25 12.4583 6.25 12.25C6.25 12.0417 6.31945 11.8681 6.45833 11.7292C6.61111 11.5764 6.79167 11.5 7 11.5C7.20833 11.5 7.38194 11.5764 7.52083 11.7292C7.67361 11.8681 7.75 12.0417 7.75 12.25C7.75 12.4583 7.67361 12.6389 7.52083 12.7917C7.38194 12.9306 7.20833 13 7 13ZM3.75 13C3.54167 13 3.36111 12.9306 3.20833 12.7917C3.06944 12.6389 3 12.4583 3 12.25C3 12.0417 3.06944 11.8681 3.20833 11.7292C3.36111 11.5764 3.54167 11.5 3.75 11.5C3.95833 11.5 4.13194 11.5764 4.27083 11.7292C4.42361 11.8681 4.5 12.0417 4.5 12.25C4.5 12.4583 4.42361 12.6389 4.27083 12.7917C4.13194 12.9306 3.95833 13 3.75 13ZM10.25 13C10.0417 13 9.86111 12.9306 9.70833 12.7917C9.56945 12.6389 9.5 12.4583 9.5 12.25C9.5 12.0417 9.56945 11.8681 9.70833 11.7292C9.86111 11.5764 10.0417 11.5 10.25 11.5C10.4583 11.5 10.6319 11.5764 10.7708 11.7292C10.9236 11.8681 11 12.0417 11 12.25C11 12.4583 10.9236 12.6389 10.7708 12.7917C10.6319 12.9306 10.4583 13 10.25 13Z" fill="#8181A5"/>
</svg>
