<svg width="16" height="16" viewBox="0 0 16 16" fill="none" xmlns="http://www.w3.org/2000/svg">
<path d="M16 16L13 13H5.5C5.08333 13 4.72917 12.8542 4.4375 12.5625C4.14583 12.2708 4 11.9167 4 11.5V10.5H12C12.4167 10.5 12.7708 10.3542 13.0625 10.0625C13.3542 9.77083 13.5 9.41667 13.5 9V4H14.5C14.9167 4 15.2708 4.14583 15.5625 4.4375C15.8542 4.72917 16 5.08333 16 5.5V16ZM1.5 8.375L2.375 7.5H10.5V1.5H1.5V8.375ZM1.78814e-07 12V1.5C1.78814e-07 1.08333 0.145833 0.729166 0.4375 0.437499C0.729167 0.145832 1.08333 -7.15256e-07 1.5 -7.15256e-07H10.5C10.9167 -7.15256e-07 11.2708 0.145832 11.5625 0.437499C11.8542 0.729166 12 1.08333 12 1.5V7.5C12 7.91667 11.8542 8.27083 11.5625 8.5625C11.2708 8.85417 10.9167 9 10.5 9H3L1.78814e-07 12ZM1.5 7.5V1.5V7.5Z" fill="#8181A5"/>
</svg>
