<svg width="14" height="14" viewBox="0 0 14 14" fill="none" xmlns="http://www.w3.org/2000/svg">
<path d="M1.5625 14C1.15972 14 0.798611 13.8403 0.479167 13.5208C0.159722 13.2014 1.19209e-07 12.8403 1.19209e-07 12.4375V1.5C1.19209e-07 1.08333 0.145834 0.729166 0.4375 0.437499C0.743056 0.145833 1.09722 -4.76837e-07 1.5 -4.76837e-07H12.5C12.9167 -4.76837e-07 13.2708 0.145833 13.5625 0.437499C13.8542 0.729166 14 1.08333 14 1.5V12.5C14 12.9028 13.8542 13.2569 13.5625 13.5625C13.2708 13.8542 12.9167 14 12.5 14H1.5625ZM1.5 12.5H6.25V1.5H1.5V12.5ZM7.75 12.5H12.5V7H7.75V12.5ZM7.75 5.5H12.5V1.5H7.75V5.5Z" fill="#8181A5"/>
</svg>
