<svg width="14" height="14" viewBox="0 0 14 14" fill="none" xmlns="http://www.w3.org/2000/svg">
<path d="M7 14C5.04167 14 3.38194 13.7083 2.02083 13.125C0.673611 12.5417 1.19209e-07 11.8333 1.19209e-07 11V3C1.19209e-07 2.16667 0.680556 1.45833 2.04167 0.874999C3.40278 0.291666 5.05556 -4.76837e-07 7 -4.76837e-07C8.93056 -4.76837e-07 10.5764 0.291666 11.9375 0.874999C13.3125 1.45833 14 2.16667 14 3V11C14 11.8333 13.3194 12.5417 11.9583 13.125C10.5972 13.7083 8.94444 14 7 14ZM7 4.5C8.19444 4.5 9.34722 4.35417 10.4583 4.0625C11.5694 3.75694 12.25 3.40278 12.5 3C12.25 2.61111 11.5625 2.26389 10.4375 1.95833C9.32639 1.65278 8.18056 1.5 7 1.5C5.80556 1.5 4.64583 1.65278 3.52083 1.95833C2.40972 2.26389 1.73611 2.61111 1.5 3C1.73611 3.40278 2.40278 3.75694 3.5 4.0625C4.61111 4.35417 5.77778 4.5 7 4.5ZM7 8.5C7.58333 8.5 8.13889 8.47222 8.66667 8.41667C9.19445 8.34722 9.6875 8.25694 10.1458 8.14583C10.6181 8.03472 11.0486 7.89583 11.4375 7.72917C11.8403 7.54861 12.1944 7.34722 12.5 7.125V4.85417C12.1667 5.03472 11.7917 5.20139 11.375 5.35417C10.9722 5.49305 10.5347 5.61111 10.0625 5.70833C9.59028 5.80556 9.09722 5.88194 8.58333 5.9375C8.06945 5.97917 7.54167 6 7 6C6.44444 6 5.90278 5.97917 5.375 5.9375C4.86111 5.88194 4.36806 5.80556 3.89583 5.70833C3.4375 5.61111 3 5.49305 2.58333 5.35417C2.18056 5.20139 1.81944 5.03472 1.5 4.85417V7.125C1.80556 7.34722 2.15278 7.54861 2.54167 7.72917C2.93056 7.89583 3.35417 8.03472 3.8125 8.14583C4.28472 8.25694 4.78472 8.34722 5.3125 8.41667C5.85417 8.47222 6.41667 8.5 7 8.5ZM7 12.5C7.61111 12.5 8.22222 12.4583 8.83333 12.375C9.45833 12.2778 10.0278 12.1597 10.5417 12.0208C11.0694 11.8681 11.5069 11.7014 11.8542 11.5208C12.2153 11.3403 12.4306 11.1528 12.5 10.9583V8.85417C12.1667 9.03472 11.7917 9.20139 11.375 9.35417C10.9722 9.49306 10.5347 9.61111 10.0625 9.70833C9.59028 9.80556 9.09722 9.88194 8.58333 9.9375C8.06945 9.97917 7.54167 10 7 10C6.44444 10 5.90278 9.97917 5.375 9.9375C4.86111 9.88194 4.36806 9.80556 3.89583 9.70833C3.4375 9.61111 3 9.49306 2.58333 9.35417C2.18056 9.20139 1.81944 9.03472 1.5 8.85417V11C1.56944 11.1806 1.77778 11.3611 2.125 11.5417C2.48611 11.7222 2.92361 11.8819 3.4375 12.0208C3.96528 12.1597 4.54167 12.2778 5.16667 12.375C5.79167 12.4583 6.40278 12.5 7 12.5Z" fill="#8181A5"/>
</svg>
