<svg width="18" height="12" viewBox="0 0 18 12" fill="none" xmlns="http://www.w3.org/2000/svg">
<path d="M1.5 12C1.05556 12 0.694445 11.8542 0.416667 11.5625C0.138889 11.2708 1.78814e-07 10.9167 1.78814e-07 10.5V1.5C1.78814e-07 1.08333 0.138889 0.729166 0.416667 0.437499C0.694445 0.145832 1.05556 -1.43051e-06 1.5 -1.43051e-06H6L8 2H14.5208C14.9514 2 15.2986 2.14583 15.5625 2.4375C15.8403 2.72917 15.9931 3.08333 16.0208 3.5H7.39583L5.39583 1.5H1.5V10.5L3.125 5H17.5L15.7292 10.9375C15.6181 11.2569 15.4722 11.5139 15.2917 11.7083C15.1111 11.9028 14.8472 12 14.5 12H1.5ZM3.0625 10.5H14.2708L15.5 6.5H4.25L3.0625 10.5ZM3.0625 10.5L4.25 6.5L3.0625 10.5ZM1.5 3.5V1.5V3.5Z" fill="#8181A5"/>
</svg>
