<svg width="17" height="14" viewBox="0 0 17 14" fill="none" xmlns="http://www.w3.org/2000/svg">
<path d="M4.35421 14C3.8681 14 3.41671 13.8958 3.00004 13.6875C2.59726 13.4792 2.20143 13.1597 1.81254 12.7292C1.2431 12.1042 0.798652 11.3542 0.479208 10.4792C0.159763 9.60417 4.07398e-05 8.70833 4.07398e-05 7.79167C4.07398e-05 6.72222 0.208374 5.71528 0.625041 4.77083C1.0556 3.82639 1.63199 3 2.35421 2.29167C3.09032 1.58333 3.94449 1.02778 4.91671 0.625C5.88893 0.208333 6.92365 -4.76837e-07 8.02087 -4.76837e-07C9.13199 -4.76837e-07 10.1667 0.208333 11.125 0.625C12.0973 1.04167 12.9445 1.61111 13.6667 2.33333C14.4028 3.05556 14.9792 3.90278 15.3959 4.875C15.8125 5.83333 16.0209 6.86111 16.0209 7.95833C16.0209 8.94444 15.8473 9.86806 15.5 10.7292C15.1667 11.5903 14.6875 12.3194 14.0625 12.9167C13.6875 13.2778 13.2987 13.5486 12.8959 13.7292C12.4931 13.9097 12.0834 14 11.6667 14C11.4306 14 11.1875 13.9722 10.9375 13.9167C10.6875 13.8472 10.4445 13.7569 10.2084 13.6458L9.02087 13.0625C8.8681 12.9931 8.71532 12.9444 8.56254 12.9167C8.42365 12.875 8.26393 12.8542 8.08337 12.8542C7.87504 12.8542 7.66671 12.8819 7.45837 12.9375C7.25004 12.9792 7.04865 13.0486 6.85421 13.1458L5.83337 13.6458C5.59726 13.7569 5.35421 13.8472 5.10421 13.9167C4.85421 13.9722 4.60421 14 4.35421 14ZM4.35421 12.5208C4.4931 12.5208 4.62504 12.5069 4.75004 12.4792C4.88893 12.4375 5.02782 12.3819 5.16671 12.3125L6.16671 11.7917C6.44449 11.6389 6.7431 11.5278 7.06254 11.4583C7.38199 11.3889 7.70837 11.3542 8.04171 11.3542C8.34726 11.3542 8.63199 11.3889 8.89587 11.4583C9.17365 11.5139 9.43754 11.6042 9.68754 11.7292L10.8542 12.3125C11.007 12.3819 11.1389 12.4375 11.25 12.4792C11.375 12.5069 11.507 12.5208 11.6459 12.5208C11.882 12.5208 12.1112 12.4722 12.3334 12.375C12.5695 12.2639 12.8056 12.0972 13.0417 11.875C13.5278 11.4306 13.8959 10.8819 14.1459 10.2292C14.3959 9.5625 14.5209 8.84028 14.5209 8.0625C14.5209 6.22917 13.8889 4.68056 12.625 3.41667C11.375 2.13889 9.84032 1.5 8.02087 1.5C6.21532 1.5 4.67365 2.13194 3.39587 3.39583C2.13199 4.65972 1.50004 6.1875 1.50004 7.97917C1.50004 8.75694 1.62504 9.48611 1.87504 10.1667C2.13893 10.8333 2.50699 11.3958 2.97921 11.8542C3.21532 12.0903 3.44449 12.2639 3.66671 12.375C3.88893 12.4722 4.1181 12.5208 4.35421 12.5208ZM8.02087 9.25C8.43754 9.25 8.79171 9.10417 9.08337 8.8125C9.37504 8.52083 9.52087 8.16667 9.52087 7.75C9.52087 7.63889 9.50699 7.52778 9.47921 7.41667C9.46532 7.30556 9.4306 7.19444 9.37504 7.08333L10.4792 5.64583C10.6459 5.84028 10.7848 6.04861 10.8959 6.27083C11.007 6.49305 11.0973 6.73611 11.1667 7H12.6875C12.4931 5.83333 11.9584 4.875 11.0834 4.125C10.2084 3.375 9.18754 3 8.02087 3C6.84032 3 5.81254 3.38194 4.93754 4.14583C4.06254 4.89583 3.53476 5.84722 3.35421 7H4.87504C5.04171 6.26389 5.41671 5.66667 6.00004 5.20833C6.59726 4.73611 7.27087 4.5 8.02087 4.5C8.2431 4.5 8.45837 4.52083 8.66671 4.5625C8.87504 4.60417 9.07643 4.66667 9.27087 4.75L8.12504 6.25C8.09726 6.25 8.07643 6.25 8.06254 6.25C8.06254 6.25 8.04865 6.25 8.02087 6.25C7.60421 6.25 7.25004 6.39583 6.95837 6.6875C6.66671 6.97917 6.52087 7.33333 6.52087 7.75C6.52087 8.16667 6.66671 8.52083 6.95837 8.8125C7.25004 9.10417 7.60421 9.25 8.02087 9.25Z" fill="#8181A5"/>
</svg>
