<svg width="14" height="17" viewBox="0 0 14 17" fill="none" xmlns="http://www.w3.org/2000/svg">
<path d="M6.25 14.0833V8.45831L1.5 5.70831V11.3333L6.25 14.0833ZM7.75 14.0833L12.5 11.3541V5.72915L7.75 8.45831V14.0833ZM6.25 15.8333L0.75 12.6458C0.513889 12.5069 0.326389 12.3264 0.1875 12.1041C0.0625002 11.8819 1.19209e-07 11.6319 1.19209e-07 11.3541V4.68748C1.19209e-07 4.4097 0.0625002 4.1597 0.1875 3.93748C0.326389 3.71526 0.513889 3.5347 0.75 3.39581L6.25 0.208312C6.48611 0.0694234 6.73611 -2.07424e-05 7 -2.07424e-05C7.26389 -2.07424e-05 7.51389 0.0694234 7.75 0.208312L13.25 3.39581C13.4861 3.5347 13.6667 3.71526 13.7917 3.93748C13.9306 4.1597 14 4.4097 14 4.68748V11.3541C14 11.6319 13.9306 11.8819 13.7917 12.1041C13.6667 12.3264 13.4861 12.5069 13.25 12.6458L7.75 15.8333C7.51389 15.9722 7.26389 16.0416 7 16.0416C6.73611 16.0416 6.48611 15.9722 6.25 15.8333ZM10.1667 5.31248L11.8958 4.33331L6.97917 1.52081L5.3125 2.49998L10.1667 5.31248ZM7 7.14581L8.70833 6.16665L3.77083 3.37498L2.10417 4.33331L7 7.14581Z" fill="#8181A5"/>
</svg>
