<svg width="14" height="16" viewBox="0 0 14 16" fill="none" xmlns="http://www.w3.org/2000/svg">
<path d="M2 16C1.36111 16 0.868056 15.8333 0.520834 15.5C0.173611 15.1528 1.19209e-07 14.6528 1.19209e-07 14V11H2V-7.15256e-07L3.20833 1.20833L4.39583 -7.15256e-07L5.60417 1.20833L6.79167 -7.15256e-07L8 1.20833L9.20833 -7.15256e-07L10.3958 1.20833L11.6042 -7.15256e-07L12.7917 1.20833L14 -7.15256e-07V13.75C14 14.4028 13.7847 14.9444 13.3542 15.375C12.9236 15.7917 12.3889 16 11.75 16H2ZM11.75 14.5C11.9722 14.5 12.1528 14.4375 12.2917 14.3125C12.4306 14.1736 12.5 13.9861 12.5 13.75V2.5H3.5V11H11V13.75C11 13.9861 11.0694 14.1736 11.2083 14.3125C11.3472 14.4375 11.5278 14.5 11.75 14.5ZM4.5 5.5V4H9V5.5H4.5ZM4.5 8V6.5H9V8H4.5ZM10.75 5.5C10.5556 5.5 10.3819 5.43055 10.2292 5.29167C10.0764 5.13889 10 4.95833 10 4.75C10 4.54167 10.0764 4.36805 10.2292 4.22917C10.3819 4.07639 10.5556 4 10.75 4C10.9583 4 11.1319 4.07639 11.2708 4.22917C11.4236 4.36805 11.5 4.54167 11.5 4.75C11.5 4.95833 11.4236 5.13889 11.2708 5.29167C11.1319 5.43055 10.9583 5.5 10.75 5.5ZM10.75 8C10.5556 8 10.3819 7.93056 10.2292 7.79167C10.0764 7.63889 10 7.45833 10 7.25C10 7.04167 10.0764 6.86805 10.2292 6.72917C10.3819 6.57639 10.5556 6.5 10.75 6.5C10.9583 6.5 11.1319 6.57639 11.2708 6.72917C11.4236 6.86805 11.5 7.04167 11.5 7.25C11.5 7.45833 11.4236 7.63889 11.2708 7.79167C11.1319 7.93056 10.9583 8 10.75 8ZM2 14.5H9.5V12.5H1.5V14C1.5 14.2361 1.52083 14.3819 1.5625 14.4375C1.61806 14.4792 1.76389 14.5 2 14.5ZM1.5 14.5C1.5 14.5 1.5 14.4792 1.5 14.4375C1.5 14.3819 1.5 14.2361 1.5 14V12.5V14.5Z" fill="#8181A5"/>
</svg>
