<svg width="16" height="14" viewBox="0 0 16 14" fill="none" xmlns="http://www.w3.org/2000/svg">
<path d="M7 14V12.5H13.5V6.9375C13.5 5.40972 12.9653 4.11111 11.8958 3.04167C10.8264 1.95833 9.52778 1.41667 8 1.41667C6.47222 1.41667 5.17361 1.95833 4.10417 3.04167C3.03472 4.11111 2.5 5.40972 2.5 6.9375V11.6667H1.5C1.08333 11.6667 0.729167 11.5208 0.4375 11.2292C0.145833 10.9236 1.78814e-07 10.5556 1.78814e-07 10.125V8.58333C1.78814e-07 8.26389 0.0902779 7.97917 0.270833 7.72917C0.451389 7.47917 0.694445 7.31944 1 7.25L1.0625 6.1875C1.1875 5.3125 1.45139 4.5 1.85417 3.75C2.25694 2.98611 2.76389 2.32639 3.375 1.77083C4 1.21528 4.70833 0.784722 5.5 0.479166C6.29167 0.159722 7.125 -4.76837e-07 8 -4.76837e-07C8.875 -4.76837e-07 9.70833 0.159722 10.5 0.479166C11.2917 0.784722 11.9931 1.21528 12.6042 1.77083C13.2292 2.32639 13.7431 2.97917 14.1458 3.72917C14.5486 4.47917 14.8125 5.29167 14.9375 6.16667L15 7.25C15.2917 7.31944 15.5278 7.47222 15.7083 7.70833C15.9028 7.93056 16 8.19444 16 8.5V10.25C16 10.5556 15.9028 10.8264 15.7083 11.0625C15.5278 11.2847 15.2917 11.4306 15 11.5V12.5C15 12.9167 14.8542 13.2708 14.5625 13.5625C14.2708 13.8542 13.9167 14 13.5 14H7ZM5.75 8.5C5.54167 8.5 5.36111 8.43056 5.20833 8.29167C5.06944 8.13889 5 7.95833 5 7.75C5 7.54167 5.06944 7.36805 5.20833 7.22917C5.36111 7.07639 5.54167 7 5.75 7C5.95833 7 6.13194 7.07639 6.27083 7.22917C6.42361 7.36805 6.5 7.54167 6.5 7.75C6.5 7.95833 6.42361 8.13889 6.27083 8.29167C6.13194 8.43056 5.95833 8.5 5.75 8.5ZM10.25 8.5C10.0417 8.5 9.86111 8.43056 9.70833 8.29167C9.56945 8.13889 9.5 7.95833 9.5 7.75C9.5 7.54167 9.56945 7.36805 9.70833 7.22917C9.86111 7.07639 10.0417 7 10.25 7C10.4583 7 10.6319 7.07639 10.7708 7.22917C10.9236 7.36805 11 7.54167 11 7.75C11 7.95833 10.9236 8.13889 10.7708 8.29167C10.6319 8.43056 10.4583 8.5 10.25 8.5ZM3.52083 7.45833C3.39583 6.11111 3.77778 4.95139 4.66667 3.97917C5.56944 2.99306 6.69444 2.5 8.04167 2.5C9.18056 2.5 10.1667 2.88194 11 3.64583C11.8472 4.40972 12.3333 5.36111 12.4583 6.5C11.2778 6.5 10.2014 6.18055 9.22917 5.54167C8.27083 4.88889 7.52778 4.04167 7 3C6.80556 3.98611 6.40278 4.875 5.79167 5.66667C5.19444 6.44444 4.4375 7.04167 3.52083 7.45833Z" fill="#8181A5"/>
</svg>
