<svg width="16" height="16" viewBox="0 0 16 16" fill="none" xmlns="http://www.w3.org/2000/svg">
<path d="M8 16C6.90278 16 5.86806 15.7917 4.89583 15.375C3.92361 14.9583 3.06944 14.3889 2.33333 13.6667C1.61111 12.9306 1.04167 12.0764 0.625 11.1042C0.208334 10.1319 1.78814e-07 9.09722 1.78814e-07 8C1.78814e-07 6.88889 0.208334 5.85417 0.625 4.89583C1.04167 3.92361 1.61111 3.07639 2.33333 2.35417C3.06944 1.61805 3.92361 1.04167 4.89583 0.624999C5.86806 0.208333 6.90278 -7.15256e-07 8 -7.15256e-07C9.11111 -7.15256e-07 10.1458 0.208333 11.1042 0.624999C12.0764 1.04167 12.9236 1.61805 13.6458 2.35417C14.3819 3.07639 14.9583 3.92361 15.375 4.89583C15.7917 5.85417 16 6.88889 16 8C16 9.09722 15.7917 10.1319 15.375 11.1042C14.9583 12.0764 14.3819 12.9306 13.6458 13.6667C12.9236 14.3889 12.0764 14.9583 11.1042 15.375C10.1458 15.7917 9.11111 16 8 16ZM8 14.5C8.76389 14.5 9.48611 14.375 10.1667 14.125C10.8472 13.875 11.4653 13.5278 12.0208 13.0833L10.9583 12C10.5417 12.3194 10.0833 12.5694 9.58333 12.75C9.08333 12.9167 8.55556 13 8 13C6.61111 13 5.43056 12.5139 4.45833 11.5417C3.48611 10.5694 3 9.38889 3 8C3 6.61111 3.48611 5.43056 4.45833 4.45833C5.43056 3.48611 6.61111 3 8 3C9.38889 3 10.5694 3.48611 11.5417 4.45833C12.5139 5.43056 13 6.61111 13 8C13 8.55556 12.9097 9.08333 12.7292 9.58333C12.5625 10.0833 12.3194 10.5417 12 10.9583L13.0833 12.0208C13.5278 11.4653 13.875 10.8472 14.125 10.1667C14.375 9.48611 14.5 8.76389 14.5 8C14.5 6.19444 13.8681 4.65972 12.6042 3.39583C11.3403 2.13194 9.80556 1.5 8 1.5C6.19444 1.5 4.65972 2.13194 3.39583 3.39583C2.13194 4.65972 1.5 6.19444 1.5 8C1.5 9.80556 2.13194 11.3403 3.39583 12.6042C4.65972 13.8681 6.19444 14.5 8 14.5ZM8 11.5C8.34722 11.5 8.67361 11.4514 8.97917 11.3542C9.29861 11.2569 9.59722 11.1181 9.875 10.9375L8.375 9.4375C8.30556 9.46528 8.23611 9.48611 8.16667 9.5C8.11111 9.5 8.05556 9.5 8 9.5C7.58333 9.5 7.22917 9.35417 6.9375 9.0625C6.64583 8.77083 6.5 8.41667 6.5 8C6.5 7.58333 6.64583 7.22917 6.9375 6.9375C7.22917 6.64583 7.58333 6.5 8 6.5C8.41667 6.5 8.77083 6.64583 9.0625 6.9375C9.35417 7.22917 9.5 7.58333 9.5 8C9.5 8.06944 9.49306 8.13194 9.47917 8.1875C9.46528 8.24306 9.45139 8.30556 9.4375 8.375L10.9375 9.875C11.1181 9.59722 11.2569 9.30556 11.3542 9C11.4514 8.68056 11.5 8.34722 11.5 8C11.5 7.02778 11.1597 6.20139 10.4792 5.52083C9.79861 4.84028 8.97222 4.5 8 4.5C7.02778 4.5 6.20139 4.84028 5.52083 5.52083C4.84028 6.20139 4.5 7.02778 4.5 8C4.5 8.97222 4.84028 9.79861 5.52083 10.4792C6.20139 11.1597 7.02778 11.5 8 11.5Z" fill="#8181A5"/>
</svg>
