<svg width="16" height="15" viewBox="0 0 16 15" fill="none" xmlns="http://www.w3.org/2000/svg">
<path d="M1.5 15C1.08333 15 0.729167 14.8542 0.4375 14.5625C0.145833 14.2708 1.78814e-07 13.9167 1.78814e-07 13.5V4.5C1.78814e-07 4.08333 0.145833 3.72917 0.4375 3.4375C0.729167 3.14583 1.08333 3 1.5 3H5V1.5C5 1.08333 5.14583 0.729166 5.4375 0.437499C5.72917 0.145832 6.08333 -7.15256e-07 6.5 -7.15256e-07H9.5C9.91667 -7.15256e-07 10.2708 0.145832 10.5625 0.437499C10.8542 0.729166 11 1.08333 11 1.5V3H14.5C14.9167 3 15.2708 3.14583 15.5625 3.4375C15.8542 3.72917 16 4.08333 16 4.5V13.5C16 13.9167 15.8542 14.2708 15.5625 14.5625C15.2708 14.8542 14.9167 15 14.5 15H1.5ZM1.5 13.5H14.5V4.5H1.5V13.5ZM6.5 3H9.5V1.5H6.5V3ZM1.5 13.5V4.5V13.5Z" fill="#8181A5"/>
</svg>
